<?xml version="1.0" standalone="no"?>
<!DOCTYPE svg PUBLIC "-//W3C//DTD SVG 1.1//EN" "http://www.w3.org/Graphics/SVG/1.1/DTD/svg11.dtd" >
<svg xmlns="http://www.w3.org/2000/svg">
<metadata>
Created by FontPrep 20130207 at Mon Jun 30 20:16:02 2014
 By Nic Lauretano
Copyright (c) 2006 The Hoefler Type Foundry, Inc., dba Hoefler &#38; Frere-Jones. All Rights Reserved.
</metadata>
<defs>
<font id="05f87def20d0354e7d73b1044bd6107d" horiz-adv-x='1024' >
  <font-face 
    font-family="Verlag-Book"
    font-weight="325"
    font-stretch="normal"
    units-per-em="2048"
    panose-1="0 0 0 0 0 0 0 0 0 0"
    ascent="1638"
    descent="-410"
    x-height="860"
    cap-height="1501"
    bbox="-115 -590 2304 2269"
    underline-thickness="102"
    underline-position="-102"
    unicode-range="U+0020-2212"
  />
<missing-glyph horiz-adv-x="1024" 
 />
    <glyph glyph-name="fi" unicode="fi" horiz-adv-x="1024" 
d="M922 1158q0 -42 -30 -72.5t-73 -30.5t-72.5 30.5t-29.5 72.5t29.5 73t72.5 31t73 -31t30 -73zM186 1102q0 414 338 414q68 0 133 -19l-26 -139q-41 10 -80 10q-115 0 -160 -54t-45 -190v-264h254v-139h-254v-721h-160v721h-133v20l133 133v228zM737 0v860h162v-860h-162z
" />
    <glyph glyph-name="fl" unicode="fl" horiz-adv-x="1032" 
d="M186 1102q0 414 338 414q68 0 133 -19l-26 -139q-41 10 -80 10q-115 0 -160 -54t-45 -190v-264h254v-139h-254v-721h-160v721h-133v20l133 133v228zM737 0v1501h162v-1501h-162z" />
    <glyph glyph-name=".notdef" horiz-adv-x="1024" 
 />
    <glyph glyph-name=".null" horiz-adv-x="0" 
 />
    <glyph glyph-name="nonmarkingreturn" horiz-adv-x="460" 
 />
    <glyph glyph-name="space" unicode=" " horiz-adv-x="460" 
 />
    <glyph glyph-name="exclam" unicode="!" horiz-adv-x="450" 
d="M287 373h-123l-29 1128h180zM332 89q0 -44 -31 -74.5t-75 -30.5t-74.5 30.5t-30.5 74.5t30.5 75t74.5 31t75 -31t31 -75z" />
    <glyph glyph-name="quotedbl" unicode="&#x22;" horiz-adv-x="823" 
d="M180 958l-90 60l193 401l157 -98zM498 934l-90 59l192 406l162 -101z" />
    <glyph glyph-name="numbersign" unicode="#" horiz-adv-x="1208" 
d="M1128 743h-217l-69 -307h219l-29 -129h-219l-68 -307h-143l68 307h-256l-68 -307h-145l67 307h-217l29 129h217l68 307h-218l29 131h217l70 306h145l-67 -306h254l69 306h144l-68 -306h217zM512 743l-70 -307h256l68 307h-254z" />
    <glyph glyph-name="dollar" unicode="$" horiz-adv-x="899" 
d="M716 89.5q-95 -97.5 -237 -109.5l-10 -134l-123 11l8 127q-145 17 -286 118l82 131q106 -84 217 -108l32 424q-137 63 -186 113.5t-68.5 97.5t-19.5 139t88 187.5t236 111.5l12 135l123 -10l-11 -129q125 -17 222 -84l-74 -129q-61 48 -158 72l-31 -396
q142 -65 210.5 -137t68.5 -202q0 -131 -95 -228.5zM653 304q0 74 -36.5 117.5t-96.5 76.5l-31 -377q74 14 119 61.5t45 121.5zM281 879q0 -94 131 -164l26 340q-157 -28 -157 -176z" />
    <glyph glyph-name="percent" unicode="%" horiz-adv-x="1363" 
d="M604 899.5q0 -61.5 -16.5 -116t-49 -96.5t-79.5 -65.5t-108.5 -23.5t-107.5 23.5t-77 65.5t-47.5 96.5t-16.5 116t16.5 115.5t49.5 96t79 65.5t107.5 23.5t108.5 -23.5t77.5 -65.5t47 -96t16.5 -115.5zM238 -39l-93 76l981 1182l93 -76zM1262 280.5q0 -61.5 -16.5 -115.5
t-49.5 -96t-79 -65.5t-107.5 -23.5t-107.5 23.5t-77.5 65.5t-47 96t-15.5 115.5t16.5 116t48 96.5t78.5 65.5t108.5 23.5t107.5 -23.5t77 -65.5t47.5 -96.5t16.5 -116zM477 899q0 76 -30.5 130t-92.5 54t-94.5 -54t-32.5 -130t32 -130t94 -54t93 54t31 130zM1137 280.5
q0 75.5 -31 130t-94.5 54.5t-94 -54.5t-30.5 -130t30.5 -130t94 -54.5t94.5 54.5t31 130z" />
    <glyph glyph-name="ampersand" unicode="&#x26;" horiz-adv-x="1245" 
d="M102 311q0 209 275 336q-80 129 -80 248t95.5 212t221.5 93t202.5 -81t76.5 -246.5t-293 -284.5q98 -121 252 -256q91 95 199 246l110 -82q-138 -177 -209 -252q81 -70 201 -168l-94 -109q-96 75 -211 172q-186 -159 -361 -159t-280 87t-105 244zM752 924q0 59 -42 104
t-104 45t-109.5 -54t-47.5 -133t75 -196q228 95 228 234zM260 303q0 -84 61.5 -136t146.5 -52q144 0 280 114q-190 173 -297 312q-84 -33 -137.5 -93.5t-53.5 -144.5z" />
    <glyph glyph-name="quotesingle" unicode="'" horiz-adv-x="501" 
d="M180 958l-90 60l193 401l157 -98z" />
    <glyph glyph-name="parenleft" unicode="(" horiz-adv-x="704" 
d="M102 528.5q0 301.5 144.5 571.5t404.5 428l68 -119q-228 -140 -348.5 -377t-120.5 -504.5t120.5 -503.5t348.5 -374l-68 -119q-262 159 -405.5 427.5t-143.5 570z" />
    <glyph glyph-name="parenright" unicode=")" horiz-adv-x="704" 
d="M602 528.5q0 -301.5 -143.5 -570t-405.5 -427.5l-67 119q342 210 405.5 479.5t63.5 466t-119.5 433.5t-349.5 380l67 119q260 -158 404.5 -428t144.5 -571.5z" />
    <glyph glyph-name="asterisk" unicode="*" horiz-adv-x="778" 
d="M473 1176l145 -177l-102 -71l-127 188l-127 -188l-100 71l143 177l-223 61l39 117l217 -80l-12 225h127l-13 -225l217 80l39 -117z" />
    <glyph glyph-name="plus" unicode="+" horiz-adv-x="942" 
d="M545 520v-289h-148v289h-274v139h274v289h148v-289h274v-139h-274z" />
    <glyph glyph-name="comma" unicode="," horiz-adv-x="450" 
d="M281.5 -94q-54.5 -89 -158.5 -152l-23 33q100 86 131 203q-49 4 -77.5 33.5t-28.5 70.5t29.5 71t76.5 30t76 -37t29 -100t-54.5 -152z" />
    <glyph glyph-name="hyphen" unicode="-" horiz-adv-x="694" 
d="M102 426v139h490v-139h-490z" />
    <glyph glyph-name="period" unicode="." horiz-adv-x="450" 
d="M121 89q0 44 30.5 75t74.5 31t75 -31t31 -75t-31 -74.5t-75 -30.5t-74.5 30.5t-30.5 74.5z" />
    <glyph glyph-name="slash" unicode="/" horiz-adv-x="690" 
d="M203 -442h-146l490 1943h143z" />
    <glyph glyph-name="zero" unicode="0" horiz-adv-x="1087" 
d="M210 153q-120 173 -120 434q0 260 123 436.5t335.5 176.5t332.5 -173t120 -436t-122.5 -437t-335.5 -174t-333 173zM834 590q0 96 -17.5 182t-53.5 150.5t-90.5 101.5t-126 37t-125.5 -37t-90 -101.5t-54.5 -150.5t-18.5 -182t18.5 -181t54.5 -149.5t90 -102.5t125.5 -38
t126 38t90.5 102.5t53.5 149.5t17.5 181z" />
    <glyph glyph-name="one" unicode="1" horiz-adv-x="698" 
d="M324 0v993l-207 -75l-49 141l391 147h26v-1206h-161z" />
    <glyph glyph-name="two" unicode="2" horiz-adv-x="892" 
d="M82 1104q148 96 315 96t273 -95t106 -245q0 -182 -152 -376t-286 -339h453v-145h-746l-10 23q310 337 399 452t131.5 194t42.5 174t-58 151.5t-180 56.5t-239 -78z" />
    <glyph glyph-name="three" unicode="3" horiz-adv-x="864" 
d="M303 551q-57 0 -127 -8l-12 18l368 471h-462v148h725l10 -23l-377 -481q172 -23 258 -114t86 -237t-109 -245.5t-275 -99.5q-165 0 -322 55l45 135q139 -47 258 -47t182 57.5t63 158.5t-77.5 156.5t-233.5 55.5z" />
    <glyph glyph-name="four" unicode="4" horiz-adv-x="989" 
d="M748 354v-358h-154v358h-549v41l662 807h41v-702h196v-146h-196zM594 500v354l-291 -354h291z" />
    <glyph glyph-name="five" unicode="5" horiz-adv-x="935" 
d="M432 725q80 0 160 -27.5t158.5 -100.5t78.5 -236q0 -162 -107.5 -271.5t-280.5 -109.5t-326 55l43 137q131 -51 259 -51t191.5 69.5t63.5 167.5t-68.5 159t-196.5 61t-225 -25l-18 22v605h610v-148h-459v-311q37 4 117 4z" />
    <glyph glyph-name="six" unicode="6" horiz-adv-x="987" 
d="M307 666q88 92 235 92t247 -107.5t100 -264.5t-109.5 -281.5t-286.5 -124.5q-178 0 -290.5 116.5t-112.5 304.5q0 351 234.5 546.5t412.5 289.5l70 -123q-190 -104 -314 -211.5t-186 -236.5zM492 631q-116 0 -179 -72t-63 -182t70.5 -185t174.5 -75q105 0 170.5 76.5
t65.5 184.5t-61.5 180.5t-177.5 72.5z" />
    <glyph glyph-name="seven" unicode="7" horiz-adv-x="868" 
d="M63 1032v148h760l-520 -1180h-160l465 1032h-545z" />
    <glyph glyph-name="eight" unicode="8" horiz-adv-x="985" 
d="M836 868q0 -174 -160 -262q84 -41 135 -115t51 -158t-26.5 -145t-74.5 -107t-117 -73.5t-192 -27.5t-226 99t-103 240q0 98 51 172t135 115q-162 88 -162 262q0 142 97 237t249 95t247.5 -95.5t95.5 -236.5zM684 869q0 81 -52 139.5t-139 58.5t-140.5 -58.5t-53.5 -139.5
t53.5 -140t140.5 -59t139 59t52 140zM702 323q0 89 -57 150.5t-152 61.5t-152.5 -61.5t-57.5 -150.5t56.5 -149.5t152.5 -60.5t153 60.5t57 149.5z" />
    <glyph glyph-name="nine" unicode="9" horiz-adv-x="966" 
d="M664 506q-74 -70 -213 -70t-245 106t-106 262t110 276t289 120t284.5 -117.5t105.5 -300.5q0 -350 -235.5 -546.5t-413.5 -290.5l-68 121q190 104 308 208.5t184 231.5zM723 816q0 110 -63.5 179.5t-168.5 69.5t-169 -72t-64 -179q0 -108 59 -177.5t175 -69.5t173.5 69.5
t57.5 179.5z" />
    <glyph glyph-name="colon" unicode=":" horiz-adv-x="450" 
d="M121 89q0 44 30.5 75t74.5 31t75 -31t31 -75t-31 -74.5t-75 -30.5t-74.5 30.5t-30.5 74.5zM119 650q0 44 30.5 75t74.5 31t75 -31t31 -75t-31 -74.5t-75 -30.5t-74.5 30.5t-30.5 74.5z" />
    <glyph glyph-name="semicolon" unicode=";" horiz-adv-x="450" 
d="M281.5 -94q-54.5 -89 -158.5 -152l-23 33q100 86 131 203q-49 4 -77.5 33.5t-28.5 70.5t29.5 71t76.5 30t76 -37t29 -100t-54.5 -152zM119 650q0 44 30.5 75t74.5 31t75 -31t31 -75t-31 -74.5t-75 -30.5t-74.5 30.5t-30.5 74.5z" />
    <glyph glyph-name="less" unicode="&#x3c;" horiz-adv-x="806" 
d="M641 92l-563 498l563 500l96 -107l-446 -397l446 -396z" />
    <glyph glyph-name="equal" unicode="=" horiz-adv-x="845" 
d="M123 668v139h600v-139h-600zM123 373v139h600v-139h-600z" />
    <glyph glyph-name="greater" unicode="&#x3e;" horiz-adv-x="806" 
d="M166 92l-96 107l446 397l-446 395l96 99l563 -498z" />
    <glyph glyph-name="question" unicode="?" horiz-adv-x="786" 
d="M321 1516q210 0 314 -95.5t104 -234.5t-69.5 -217t-117.5 -119t-117.5 -110.5t-69.5 -166.5v-157h-150v200q0 137 145.5 260.5t179 180.5t33.5 110q0 92 -60 142.5t-177 50.5t-246 -47l-45 147q157 56 276 56zM393 89q0 -44 -30.5 -74.5t-74.5 -30.5t-75 30.5t-31 74.5
t31 75t75 31t74.5 -31t30.5 -75z" />
    <glyph glyph-name="at" unicode="@" horiz-adv-x="1400" 
d="M102 586q0 127 47.5 237.5t128 193.5t190.5 131t247 48t249.5 -50t186.5 -130t110.5 -179.5t36.5 -194.5q0 -210 -137 -306q-61 -45 -139 -45q-121 0 -170 100q-90 -94 -201 -94q-78 0 -134 46t-56 123t53 122t137 45t152 -31v23q0 121 -131 120q-69 0 -135 -22l-17 102
q89 29 172 29q244 0 244 -236v-131q0 -53 28.5 -74.5t66.5 -21.5t72 25t55.5 83t21.5 132q0 174 -120 314t-360 140q-197 0 -335 -145.5t-138 -358.5t143 -354t396 -141q103 0 244 47l28 -108q-313 -97 -554.5 -1t-311.5 265.5t-70 296.5zM695 549q-107 0 -107 -76
q0 -82 102 -82q65 0 113 55v68q-56 35 -108 35z" />
    <glyph glyph-name="A" unicode="A" horiz-adv-x="1394" 
d="M1208 0l-178 416h-672l-178 -416h-170l674 1528h27l673 -1528h-176zM694 1198l-276 -645h553z" />
    <glyph glyph-name="B" unicode="B" horiz-adv-x="1140" 
d="M1073 408q0 -171 -146 -295.5t-401 -124.5q-160 0 -362 24v1475q202 24 341 24q260 0 394.5 -113.5t134.5 -271.5q0 -119 -55 -208t-209 -142q303 -81 303 -368zM490 831q196 0 285 77.5t89 197.5q0 119 -82 192.5t-256 73.5q-116 0 -198 -16v-518q50 -7 162 -7zM522 129
q196 0 287.5 83t91.5 206t-104 205t-289 82h-69q-69 0 -111 -7v-553q82 -16 194 -16z" />
    <glyph glyph-name="C" unicode="C" horiz-adv-x="1462" 
d="M1337 1243q-225 129 -458 129q-125 0 -238 -47t-190.5 -131t-118.5 -197.5t-41 -316.5t170 -377t448 -174q109 0 227.5 37t215.5 92l53 -139q-236 -144 -496 -144q-347 0 -512.5 161t-224.5 303.5t-59 309.5t60 309t166.5 245.5t253 163t306.5 59.5q275 0 506 -144z" />
    <glyph glyph-name="D" unicode="D" horiz-adv-x="1525" 
d="M568 1511q198 0 358.5 -62.5t268.5 -166.5t163 -239t55 -283t-52 -288t-157.5 -247.5t-264.5 -172t-361 -64.5t-414 24v1475q206 24 404 24zM580 129q329 0 492 177.5t163 452.5q0 276 -174.5 444.5t-491.5 168.5q-159 0 -241 -16v-1211q76 -16 252 -16z" />
    <glyph glyph-name="E" unicode="E" horiz-adv-x="1175" 
d="M164 0v1501h878v-147h-714v-518h643v-148h-643v-541h714v-147h-878z" />
    <glyph glyph-name="F" unicode="F" horiz-adv-x="1101" 
d="M328 1354v-547h643v-148h-643v-659h-164v1501h878v-147h-714z" />
    <glyph glyph-name="G" unicode="G" horiz-adv-x="1587" 
d="M918 121q209 0 382 102v367h-397v153h561v-591q-237 -177 -549 -177q-156 0 -301 55.5t-256.5 157t-178 243.5t-66.5 318.5t68.5 319.5t179 244.5t251 157t258.5 55.5q198 0 326.5 -45.5t261.5 -137.5l-86 -129q-224 164 -489 164q-264 0 -428 -184t-164 -446
t180.5 -444.5t446.5 -182.5z" />
    <glyph glyph-name="H" unicode="H" horiz-adv-x="1458" 
d="M1130 0v688h-802v-688h-164v1501h164v-665h802v665h164v-1501h-164z" />
    <glyph glyph-name="I" unicode="I" horiz-adv-x="512" 
d="M174 0v1501h164v-1501h-164z" />
    <glyph glyph-name="J" unicode="J" horiz-adv-x="929" 
d="M356 125q133 0 194.5 79t61.5 245v1052h164v-1055q0 -212 -111 -341.5t-307 -129.5t-329 107l84 125q110 -82 243 -82z" />
    <glyph glyph-name="K" unicode="K" horiz-adv-x="1226" 
d="M328 0h-164v1501h164v-698l653 698h207l-696 -729l729 -772h-215l-678 737v-737z" />
    <glyph glyph-name="L" unicode="L" horiz-adv-x="1079" 
d="M164 0v1501h164v-1354h714v-147h-878z" />
    <glyph glyph-name="M" unicode="M" horiz-adv-x="1751" 
d="M1442 0l-23 1061l-532 -907h-23l-536 909l-19 -1063h-166l58 1526l30 4l652 -1131l635 1131l32 -4l58 -1526h-166z" />
    <glyph glyph-name="N" unicode="N" horiz-adv-x="1486" 
d="M328 0h-164v1522l33 8l962 -1149v1120h164v-1524l-20 -6l-975 1168v-1139z" />
    <glyph glyph-name="O" unicode="O" horiz-adv-x="1722" 
d="M1610 751q0 -169 -61.5 -311.5t-165 -246t-240.5 -161t-289 -57.5t-287 57.5t-236.5 161t-159.5 246t-58 311.5t61.5 311t164.5 244.5t240.5 161t289 58.5t286.5 -58.5t236.5 -161t160 -244.5t58.5 -311zM1432 749.5q0 133.5 -42 248t-118 199.5t-180.5 133t-229.5 48
t-230.5 -48t-181 -133t-117.5 -199.5t-42 -248t42 -248t117.5 -199.5t181 -133t230.5 -48t229.5 48t180.5 133t118 199.5t42 248z" />
    <glyph glyph-name="P" unicode="P" horiz-adv-x="1128" 
d="M509 1511q276 0 426 -136.5t150 -353.5q0 -218 -158.5 -358.5t-428.5 -140.5q-92 0 -170 8v-530h-164v1487q201 24 345 24zM528 666q84 0 232.5 55.5t148.5 300.5q0 143 -100.5 242.5t-257.5 99.5t-223 -16v-670q116 -12 200 -12z" />
    <glyph glyph-name="Q" unicode="Q" horiz-adv-x="1722" 
d="M113 751q0 169 60 311t163.5 244.5t241.5 161t290 58.5t286 -58.5t235.5 -161t160 -244.5t58.5 -312q0 -292 -178 -506q35 -29 68.5 -60.5t64.5 -58.5t61 -55l-104 -121q-13 12 -207 184q-204 -158 -461 -158q-152 0 -287 57.5t-235.5 161t-158.5 246t-58 311.5z
M1430 750q0 268 -161 448t-409.5 180t-408.5 -180.5t-160 -448t160 -448t409 -180.5q189 0 338 115q-22 22 -41.5 39.5t-44 40t-68.5 60.5t-120 107l104 119q281 -246 281 -252q121 174 121 400z" />
    <glyph glyph-name="R" unicode="R" horiz-adv-x="1216" 
d="M477 588q-73 0 -147 4v-592h-164v1487q202 24 346 24q282 0 430 -124.5t148 -325.5q0 -158 -84 -270.5t-244 -163.5l436 -627h-199l-399 592q-50 -4 -123 -4zM512 727q211 0 306 88.5t95 230.5t-99 230t-259 88t-225 -16v-611q92 -10 182 -10z" />
    <glyph glyph-name="S" unicode="S" horiz-adv-x="1028" 
d="M842 1284q-123 92 -265 92t-216 -72t-74 -165t58.5 -158.5t186.5 -123.5q242 -109 327 -203.5t85 -261.5t-130.5 -292t-328.5 -125q-129 0 -232 37t-202 103l80 143q188 -133 363 -133q138 0 210 77.5t72 182.5t-58 172t-197 129q-140 62 -269 146t-129 284
q0 170 129.5 290t321.5 120t341 -103z" />
    <glyph glyph-name="T" unicode="T" horiz-adv-x="1267" 
d="M717 1354v-1354h-164v1354h-502v147h1166v-147h-500z" />
    <glyph glyph-name="U" unicode="U" horiz-adv-x="1421" 
d="M1276 539q0 -261 -157.5 -412.5t-415.5 -151.5t-408 150t-150 414v962h164v-950q0 -215 106.5 -321.5t344 -106.5t295 157.5t57.5 270.5v950h164v-962z" />
    <glyph glyph-name="V" unicode="V" horiz-adv-x="1382" 
d="M705 -27h-27l-668 1528h185l501 -1188l498 1188h178z" />
    <glyph glyph-name="W" unicode="W" horiz-adv-x="1875" 
d="M1442 -25l-33 -4l-475 1188l-467 -1188l-33 4l-414 1526h166l297 -1106l445 1118h20l447 -1112l295 1100h165z" />
    <glyph glyph-name="X" unicode="X" horiz-adv-x="1368" 
d="M1130 0l-448 633l-451 -633h-190l553 748l-553 753h197l448 -633l451 633h190l-553 -747l553 -754h-197z" />
    <glyph glyph-name="Y" unicode="Y" horiz-adv-x="1300" 
d="M731 0h-164v668l-526 833h184l430 -696l424 696h181l-529 -835v-666z" />
    <glyph glyph-name="Z" unicode="Z" horiz-adv-x="1269" 
d="M1174 147v-147h-1088l-10 23l850 1331h-797v147h1045l10 -24l-850 -1330h840z" />
    <glyph glyph-name="bracketleft" unicode="[" horiz-adv-x="608" 
d="M164 -442v1943h395v-131h-248v-1683h248v-129h-395z" />
    <glyph glyph-name="backslash" unicode="\" horiz-adv-x="690" 
d="M487 -442l-487 1943h143l490 -1943h-146z" />
    <glyph glyph-name="bracketright" unicode="]" horiz-adv-x="608" 
d="M49 -442v129h248v1683h-248v131h395v-1943h-395z" />
    <glyph glyph-name="asciicircum" unicode="^" 
d="M588 993l-137 174l-136 -174h-157l272 328h59l267 -328h-168z" />
    <glyph glyph-name="underscore" unicode="_" horiz-adv-x="1064" 
d="M0 0v139h1065v-139h-1065z" />
    <glyph glyph-name="grave" unicode="`" 
d="M647 971l-391 182l86 160l358 -256z" />
    <glyph glyph-name="a" unicode="a" horiz-adv-x="892" 
d="M432 877q186 0 274.5 -89.5t88.5 -275.5v-512h-150v90q-110 -106 -255 -106q-144 0 -233 74.5t-89 197.5t90.5 197.5t199.5 74.5t166.5 -17t112.5 -40v51q0 111 -53.5 162t-174.5 51t-223 -43l-26 139q151 46 272 46zM420 113q125 0 217 106v117q-66 35 -114 52.5
t-126 17.5t-127 -37t-49 -109t51.5 -109.5t147.5 -37.5z" />
    <glyph glyph-name="b" unicode="b" horiz-adv-x="1044" 
d="M837.5 115.5q-125.5 -131.5 -298.5 -131.5q-72 0 -147 26.5t-124 73.5v-84h-153v1501h161v-719q49 41 124 68t159 27t158 -32t160 -123.5t86 -282.5q0 -192 -125.5 -323.5zM276 231q93 -112 226 -112t217 88t84 223t-75.5 223t-211.5 88t-240 -102v-408z" />
    <glyph glyph-name="c" unicode="c" horiz-adv-x="876" 
d="M547 -16q-205 0 -335 128.5t-130 313.5t131.5 318t333.5 133q149 0 293 -89l-66 -122q-121 71 -246 71t-207.5 -83.5t-82.5 -222.5q0 -140 90.5 -224t211.5 -84t244 72l56 -123q-140 -88 -293 -88z" />
    <glyph glyph-name="d" unicode="d" horiz-adv-x="1044" 
d="M768 1501h162v-1501h-154v88q-100 -104 -281 -104t-297 122t-116 313t126 324.5t290.5 133.5t269.5 -86v710zM319.5 652q-77.5 -89 -77.5 -223t76.5 -222t215.5 -88t234 112v394q-97 116 -250 116q-121 0 -198.5 -89z" />
    <glyph glyph-name="e" unicode="e" horiz-adv-x="944" 
d="M82 422q0 191 112.5 323t296.5 132t285 -116.5t101 -297.5q0 -44 -7 -82h-630q28 -258 321 -258q97 0 238 47l28 -137q-158 -49 -277 -49q-229 0 -348.5 123.5t-119.5 314.5zM494 741q-110 0 -172 -63.5t-76 -173.5h481q-8 100 -65.5 168.5t-167.5 68.5z" />
    <glyph glyph-name="f" unicode="f" horiz-adv-x="604" 
d="M186 1102q0 414 338 414q68 0 133 -19l-26 -139q-41 10 -80 10q-115 0 -160 -54t-45 -190v-264h254v-139h-254v-721h-160v721h-133v20l133 133v228z" />
    <glyph glyph-name="g" unicode="g" horiz-adv-x="1044" 
d="M776 860h154v-940q0 -199 -99 -289t-247 -90t-308 47l23 148q133 -45 247 -45t168 52t54 163v168q-108 -90 -281 -90t-289 122t-116 313t126 324.5t296 133.5t272 -97v80zM530 741q-135 0 -211.5 -90.5t-76.5 -226.5t79.5 -222.5t218.5 -86.5t228 106v404
q-39 47 -103.5 81.5t-134.5 34.5z" />
    <glyph glyph-name="h" unicode="h" horiz-adv-x="993" 
d="M577 877q159 0 234.5 -82t75.5 -211v-584h-162v541q0 201 -180 200q-140 0 -269 -139v-602h-161v1501h161v-770q142 146 301 146z" />
    <glyph glyph-name="i" unicode="i" horiz-adv-x="411" 
d="M309 1158q0 -42 -29.5 -72.5t-72.5 -30.5t-73 30.5t-30 72.5t30 73t73 31t72.5 -31t29.5 -73zM125 0v860h162v-860h-162z" />
    <glyph glyph-name="j" unicode="j" horiz-adv-x="411" 
d="M313 1158q0 -42 -29.5 -72.5t-72.5 -30.5t-72.5 30.5t-29.5 72.5t29.5 73t72.5 31t72.5 -31t29.5 -73zM291 -188q0 -271 -242 -271q-59 0 -141 17l18 135q40 -6 90 -6q114 0 113 112v1061h162v-1048z" />
    <glyph glyph-name="k" unicode="k" horiz-adv-x="864" 
d="M276 0h-161v1501h161v-1020l365 379h201l-416 -401l436 -459h-200l-386 424v-424z" />
    <glyph glyph-name="l" unicode="l" horiz-adv-x="407" 
d="M123 0v1501h162v-1501h-162z" />
    <glyph glyph-name="m" unicode="m" horiz-adv-x="1536" 
d="M819 717q135 155 359 155q118 0 185 -77.5t67 -214.5v-580h-162v551q0 90 -35 138t-121 48q-126 0 -258 -137v-600h-162v541q0 100 -34.5 150t-127.5 50q-132 0 -254 -145v-596h-161v860h153v-131q160 148 318 148q102 0 153.5 -45.5t79.5 -114.5z" />
    <glyph glyph-name="n" unicode="n" horiz-adv-x="980" 
d="M713 541q0 200 -163 200q-143 0 -274 -139v-602h-161v860h153v-131q148 148 308 148t229 -82t69 -211v-584h-161v541z" />
    <glyph glyph-name="o" unicode="o" horiz-adv-x="1034" 
d="M952 430q0 -92 -30.5 -173t-88 -142.5t-137.5 -96t-178 -34.5t-179 34.5t-137.5 96t-88 142.5t-31.5 173t31.5 173t88 142.5t137.5 96.5t179 35t178 -35t137.5 -96.5t88 -142.5t30.5 -173zM793 430q0 141 -76 228t-200 87t-199.5 -87t-75.5 -228t75.5 -228t199.5 -87
t200 87t76 228z" />
    <glyph glyph-name="p" unicode="p" horiz-adv-x="1044" 
d="M268 774q116 103 290 103t289.5 -125t115.5 -317t-123.5 -321.5t-313.5 -129.5q-135 0 -250 63v-489h-161v1302h153v-86zM522 117q125 0 203 89t78 224q0 136 -77 223.5t-212 87.5t-240 -102v-424q85 -98 248 -98z" />
    <glyph glyph-name="q" unicode="q" horiz-adv-x="1044" 
d="M776 860h154v-1302h-162v510q-101 -84 -273 -84t-292.5 120.5t-120.5 314.5t129 326t294 132q164 0 271 -93v76zM539 119q144 0 229 108v398q-39 47 -103.5 81.5t-132.5 34.5q-130 0 -210 -89.5t-80 -225.5q0 -135 76.5 -221t220.5 -86z" />
    <glyph glyph-name="r" unicode="r" horiz-adv-x="606" 
d="M575 719q-94 0 -173.5 -33t-125.5 -98v-588h-161v860h153v-143q122 160 307 160v-158z" />
    <glyph glyph-name="s" unicode="s" horiz-adv-x="716" 
d="M248 640q0 -42 29.5 -65.5t73.5 -44t170 -69.5t126 -207q0 -113 -82 -191.5t-187 -78.5q-183 0 -323 112l82 115q49 -45 108.5 -70.5t108.5 -25.5q148 0 148 123q0 43 -30 69.5t-75 47t-96 41t-126 68t-75 154.5t80 183t208.5 76t254.5 -82l-72 -121q-100 71 -179 71
t-111.5 -31.5t-32.5 -73.5z" />
    <glyph glyph-name="t" unicode="t" horiz-adv-x="604" 
d="M406 -16q-240 0 -240 270v467h-137v20l137 133v150l158 117v-281h254v-139h-254v-483q0 -113 135 -113q38 0 71 6l17 -131q-78 -16 -141 -16z" />
    <glyph glyph-name="u" unicode="u" horiz-adv-x="980" 
d="M705 860h161v-860h-153v121q-55 -53 -140.5 -95t-169.5 -42q-152 0 -224.5 81.5t-72.5 210.5v584h162v-541q0 -201 181 -200q132 0 256 131v610z" />
    <glyph glyph-name="v" unicode="v" horiz-adv-x="890" 
d="M455 -23h-27l-420 883h180l261 -602l260 602h174z" />
    <glyph glyph-name="w" unicode="w" horiz-adv-x="1220" 
d="M907 -23h-26l-263 584l-266 -584h-26l-310 883h181l168 -561l237 565h27l254 -565l157 561h172z" />
    <glyph glyph-name="x" unicode="x" horiz-adv-x="854" 
d="M645 0l-213 311l-219 -311h-174l313 426l-313 434h182l217 -315l215 315h174l-309 -430l309 -430h-182z" />
    <glyph glyph-name="y" unicode="y" horiz-adv-x="890" 
d="M274 -442h-161l258 524l-363 778h180l263 -616l258 616h174z" />
    <glyph glyph-name="z" unicode="z" horiz-adv-x="829" 
d="M778 139v-139h-731l-10 23l504 698h-465v139h702l10 -24l-503 -697h493z" />
    <glyph glyph-name="braceleft" unicode="{" horiz-adv-x="608" 
d="M571 -457q-346 0 -346 355v434q0 66 -25.5 99.5t-101.5 33.5h-47v129h47q76 0 101.5 32.5t25.5 100.5v432q0 356 346 357v-144q-96 0 -147 -44t-51 -161v-407q0 -100 -20.5 -135t-48.5 -55.5t-71 -41.5q89 -41 114.5 -86t25.5 -145v-406q0 -117 51 -161.5t147 -44.5v-142
z" />
    <glyph glyph-name="bar" unicode="|" horiz-adv-x="507" 
d="M184 -442v1943h140v-1943h-140z" />
    <glyph glyph-name="braceright" unicode="}" horiz-adv-x="608" 
d="M510 465q-76 0 -101.5 -34t-25.5 -99v-434q0 -354 -346 -355v142q96 0 147.5 45t51.5 161v406q0 101 20 136.5t48 55t71 39.5q-86 40 -112.5 85t-26.5 147v407q0 117 -51.5 161t-147.5 44v144q346 0 346 -357v-432q0 -68 25.5 -100.5t101.5 -32.5h47v-129h-47z" />
    <glyph glyph-name="asciitilde" unicode="~" 
d="M557 645q-57 0 -119 39q-53 39 -106 39t-113 -76l-74 96q87 111 195 111q59 0 116.5 -39t109.5 -39t112 76l74 -96q-87 -111 -195 -111z" />
    <glyph glyph-name="uni00A0" unicode="&#xa0;" horiz-adv-x="501" 
 />
    <glyph glyph-name="exclamdown" unicode="&#xa1;" horiz-adv-x="450" 
d="M119 1412q0 44 30.5 75t74.5 31t75 -31t31 -75t-31 -74.5t-75 -30.5t-74.5 30.5t-30.5 74.5zM164 1128h123l28 -1128h-180z" />
    <glyph glyph-name="cent" unicode="&#xa2;" horiz-adv-x="876" 
d="M408 2q-148 39 -237 156.5t-89 280.5q0 162 114 287.5t279 145.5l12 146l134 -10l-11 -138q121 -15 230 -82l-66 -122q-91 51 -176 65l-47 -608q111 4 233 72l56 -123q-147 -88 -291 -88h-8l-11 -142l-133 11zM238 442q0 -114 49 -188t133 -109l45 586
q-100 -20 -163.5 -97.5t-63.5 -191.5z" />
    <glyph glyph-name="sterling" unicode="&#xa3;" horiz-adv-x="899" 
d="M369 784v-135h252v-139h-252v-365h501v-145h-798v145h135v365h-135v12l135 140v143q0 171 102.5 283t284.5 112q136 0 285 -88l-78 -135q-113 76 -230 76q-202 0 -202 -269z" />
    <glyph glyph-name="yen" unicode="&#xa5;" horiz-adv-x="1030" 
d="M920 688v-139h-320v-137h320v-133h-320v-279h-162v279h-327v133h327v137h-327v139h258l-318 492h185l286 -461l279 461h178l-311 -492h252z" />
    <glyph glyph-name="section" unicode="&#xa7;" horiz-adv-x="915" 
d="M350 964q0 -40 35 -63.5t86 -43t197.5 -69t146.5 -198.5q0 -133 -127 -197q74 -57 74 -156t-86 -178t-223 -79q-182 0 -320 110l80 117q49 -45 121 -70.5t129 -25.5q150 0 149 110q0 45 -34.5 71.5t-88 46t-115 38t-149.5 63.5t-88 156q0 137 142 199q-84 57 -84 154
q0 98 89.5 174.5t231.5 76.5t260 -84l-71 -119q-102 72 -187 72q-86 0 -127 -32.5t-41 -72.5zM670 560q0 60 -54.5 96t-201.5 79q-55 -6 -90 -36.5t-35 -67.5t21.5 -58.5t59.5 -39t90 -35t111 -39.5q43 10 71 39.5t28 61.5z" />
    <glyph glyph-name="dieresis" unicode="&#xa8;" 
d="M731 1115q0 -42 -30.5 -72.5t-72.5 -30.5t-73 30.5t-31 72.5t31 73t73 31t72.5 -31t30.5 -73zM377 1115q0 -42 -31 -72.5t-73 -30.5t-72.5 30.5t-30.5 72.5t30.5 73t72.5 31t73 -31t31 -73z" />
    <glyph glyph-name="copyright" unicode="&#xa9;" horiz-adv-x="1724" 
d="M1622 749.5q0 -159.5 -59.5 -301t-163 -247t-241.5 -166t-295.5 -60.5t-296 60.5t-242 166t-163 247t-59.5 301t59.5 301t163 247t242 167t296 61.5t295.5 -61.5t241.5 -167t163 -247t59.5 -301zM1485 749.5q0 135.5 -49.5 255t-133 209t-197.5 140.5t-243 51t-242.5 -51
t-197.5 -140.5t-133 -209t-49 -255t49 -254t133 -207.5t197.5 -140.5t242.5 -51.5t243 51.5t197.5 140.5t133 207.5t49.5 254zM922 371q-111 0 -185.5 28.5t-129 79.5t-84 123t-29.5 197.5t115.5 235.5t289.5 110q132 0 242 -68l-43 -108q-103 57 -214 57
q-112 0 -181.5 -74.5t-69.5 -193.5t71.5 -194t185.5 -75t214 60l41 -109q-112 -69 -223 -69z" />
    <glyph glyph-name="ordfeminine" unicode="&#xaa;" horiz-adv-x="700" 
d="M336 1526q287 0 287 -277v-370h-148v63q-74 -74 -177 -74t-169 51.5t-66 142.5t62.5 147.5t154.5 56.5t191 -41v30q0 78 -39 112t-117 34t-161 -29l-21 121q106 33 203 33zM334 1165q-125 0 -125 -94t123 -94q78 0 139 63v80q-78 45 -137 45z" />
    <glyph glyph-name="guillemotleft" unicode="&#xab;" horiz-adv-x="866" 
d="M612 18l-215 336l215 334h162l-225 -334l225 -336h-162zM315 18l-215 336l215 334h162l-225 -334l225 -336h-162z" />
    <glyph glyph-name="registered" unicode="&#xae;" horiz-adv-x="790" 
d="M641.5 1420.5q101.5 -105.5 101.5 -250.5q0 -144 -102 -249.5t-246 -105.5t-246 104t-102 250t102 251.5t246.5 105.5t246 -105.5zM597 960.5q83 88.5 83 209.5t-82.5 209.5t-201.5 88.5t-202 -88.5t-83 -210t84 -209.5t201 -88q118 0 201 88.5zM524 1239q0 -78 -65 -102
l90 -138h-76l-76 123q-8 -2 -9 -2h-13l-27 2v-123h-65v344q154 21 197.5 -18t43.5 -86zM455 1237q0 55 -70 55q-27 0 -37 -2v-114q10 -2 12 -2h21q74 0 74 63z" />
    <glyph glyph-name="macron" unicode="&#xaf;" 
d="M158 1026v137h587v-137h-587z" />
    <glyph glyph-name="degree" unicode="&#xb0;" 
d="M674 1192q0 -94 -62.5 -153.5t-161 -59.5t-161 59.5t-62.5 153.5t62.5 155.5t161 61.5t161 -61.5t62.5 -155.5zM559 1194q0 53 -29.5 87t-79 34t-79 -34t-29.5 -87t29.5 -87t79 -34t79 34t29.5 87z" />
    <glyph glyph-name="acute" unicode="&#xb4;" 
d="M272 971l-47 90l359 256l80 -164z" />
    <glyph glyph-name="paragraph" unicode="&#xb6;" horiz-adv-x="1212" 
d="M722 1200q130 0 337 -24v-1176h-148v1036q-27 4 -61.5 6t-71.5 5v-1047h-147v326q-217 -13 -365.5 94.5t-148.5 314.5t167.5 336t437.5 129zM293 732q0 -132 102 -200.5t236 -56.5v569q-168 -16 -253 -98t-85 -214z" />
    <glyph glyph-name="periodcentered" unicode="&#xb7;" horiz-adv-x="614" 
d="M203 749q0 44 30.5 74.5t74.5 30.5t75 -30.5t31 -74.5t-31 -75t-75 -31t-74.5 31t-30.5 75z" />
    <glyph glyph-name="cedilla" unicode="&#xb8;" 
d="M492 -377q39 0 59 20.5t20 55.5t-43 66.5t-147 37.5l-8 17l55 209l94 -25l-28 -108q115 -27 157.5 -81.5t42.5 -120.5t-49 -122.5t-153 -56.5t-222 69l47 94q93 -55 175 -55z" />
    <glyph glyph-name="ordmasculine" unicode="&#xba;" horiz-adv-x="739" 
d="M698 1196q0 -68 -23.5 -127t-66.5 -104t-103.5 -71t-136 -26t-136 26t-103.5 71t-65.5 104t-22.5 127t22.5 128t65.5 105.5t103.5 71t136 25.5t136 -25.5t103.5 -71t66.5 -105.5t23.5 -128zM547 1197q0 95 -48 150.5t-130 55.5t-129 -55.5t-47 -150.5t47 -150.5
t129 -55.5t130 55.5t48 150.5z" />
    <glyph glyph-name="guillemotright" unicode="&#xbb;" horiz-adv-x="866" 
d="M551 18h-162l225 336l-225 334h162l215 -334zM254 18h-162l225 336l-225 334h162l215 -334z" />
    <glyph glyph-name="questiondown" unicode="&#xbf;" horiz-adv-x="786" 
d="M393 1412q0 44 31 75t75 31t74.5 -31t30.5 -75t-30.5 -74.5t-74.5 -30.5t-75 30.5t-31 74.5zM47 315q0 139 69.5 217t118 119t118 110.5t69.5 166.5v157h149v-200q0 -137 -145.5 -260.5t-179 -180.5t-33.5 -110q0 -92 60.5 -142.5t178.5 -50.5t244 47l45 -147
q-155 -55 -275 -55q-211 0 -315 95t-104 234z" />
    <glyph glyph-name="Agrave" unicode="&#xc0;" horiz-adv-x="1394" 
d="M1208 0l-178 416h-672l-178 -416h-170l674 1528h27l673 -1528h-176zM694 1198l-276 -645h553zM760 1626l-391 182l86 160l358 -256z" />
    <glyph glyph-name="Aacute" unicode="&#xc1;" horiz-adv-x="1394" 
d="M1208 0l-178 416h-672l-178 -416h-170l674 1528h27l673 -1528h-176zM694 1198l-276 -645h553zM629 1626l-47 90l358 256l80 -164z" />
    <glyph glyph-name="Acircumflex" unicode="&#xc2;" horiz-adv-x="1394" 
d="M1208 0l-178 416h-672l-178 -416h-170l674 1528h27l673 -1528h-176zM694 1198l-276 -645h553zM827 1657l-137 174l-135 -174h-158l273 328h59l266 -328h-168z" />
    <glyph glyph-name="Atilde" unicode="&#xc3;" horiz-adv-x="1394" 
d="M1208 0l-178 416h-672l-178 -416h-170l674 1528h27l673 -1528h-176zM694 1198l-276 -645h553zM811 1659q-57 0 -119 39q-53 39 -106 39t-113 -76l-74 96q87 111 195 111q59 0 116.5 -39t109.5 -39t112 76l74 -97q-86 -110 -195 -110z" />
    <glyph glyph-name="Adieresis" unicode="&#xc4;" horiz-adv-x="1394" 
d="M1208 0l-178 416h-672l-178 -416h-170l674 1528h27l673 -1528h-176zM694 1198l-276 -645h553zM977 1770q0 -42 -31 -72.5t-73 -30.5t-72.5 30.5t-30.5 72.5t30.5 73t72.5 31t73 -31t31 -73zM623 1770q0 -42 -31 -72.5t-73 -30.5t-72.5 30.5t-30.5 72.5t30.5 73t72.5 31
t73 -31t31 -73z" />
    <glyph glyph-name="Aring" unicode="&#xc5;" horiz-adv-x="1394" 
d="M915 1662q0 -83 -45 -140.5t-127 -71.5l641 -1450h-176l-178 416h-672l-178 -416h-170l639 1452q-80 14 -124 70.5t-44 139.5t57.5 144.5t160 61.5t159.5 -61.5t57 -144.5zM694 1198l-276 -645h553zM803 1658q0 52 -30 85t-75 33t-74.5 -32t-29.5 -85t29.5 -85t74.5 -32
t75 32t30 84z" />
    <glyph glyph-name="AE" unicode="&#xc6;" horiz-adv-x="2088" 
d="M1077 0v483h-547l-342 -483h-188l1077 1501h879v-147h-715v-518h643v-148h-643v-541h715v-147h-879zM1077 621v632l-448 -632h448z" />
    <glyph glyph-name="Ccedilla" unicode="&#xc7;" horiz-adv-x="1462" 
d="M1337 1243q-225 129 -458 129q-125 0 -238 -47t-190.5 -131t-118.5 -197.5t-41 -316.5t170 -377t448 -174q109 0 227.5 37t215.5 92l53 -139q-219 -135 -473 -144l-21 -79q115 -27 158 -81.5t43 -120.5t-49 -122.5t-153 -56.5t-222 69l47 94q93 -55 174 -55
q39 0 59.5 20.5t20.5 55.5t-43 66.5t-147 37.5l-8 17l40 160q-314 24 -516 237.5t-202 532.5q0 166 60 308t166.5 245.5t253 163t306.5 59.5q275 0 506 -144z" />
    <glyph glyph-name="Egrave" unicode="&#xc8;" horiz-adv-x="1175" 
d="M164 0v1501h878v-147h-714v-518h643v-148h-643v-541h714v-147h-878zM672 1626l-391 182l86 160l358 -256z" />
    <glyph glyph-name="Eacute" unicode="&#xc9;" horiz-adv-x="1175" 
d="M164 0v1501h878v-147h-714v-518h643v-148h-643v-541h714v-147h-878zM541 1626l-47 90l358 256l80 -164z" />
    <glyph glyph-name="Ecircumflex" unicode="&#xca;" horiz-adv-x="1175" 
d="M164 0v1501h878v-147h-714v-518h643v-148h-643v-541h714v-147h-878zM739 1657l-137 174l-135 -174h-158l273 328h59l266 -328h-168z" />
    <glyph glyph-name="Edieresis" unicode="&#xcb;" horiz-adv-x="1175" 
d="M164 0v1501h878v-147h-714v-518h643v-148h-643v-541h714v-147h-878zM889 1770q0 -42 -31 -72.5t-73 -30.5t-72.5 30.5t-30.5 72.5t30.5 73t72.5 31t73 -31t31 -73zM535 1770q0 -42 -31 -72.5t-73 -30.5t-72.5 30.5t-30.5 72.5t30.5 73t72.5 31t73 -31t31 -73z" />
    <glyph glyph-name="Igrave" unicode="&#xcc;" horiz-adv-x="509" 
d="M174 0v1501h164v-1501h-164zM317 1626l-391 182l86 160l359 -256z" />
    <glyph glyph-name="Iacute" unicode="&#xcd;" horiz-adv-x="509" 
d="M174 0v1501h164v-1501h-164zM186 1626l-47 90l359 256l80 -164z" />
    <glyph glyph-name="Icircumflex" unicode="&#xce;" horiz-adv-x="509" 
d="M174 0v1501h164v-1501h-164zM385 1657l-137 174l-135 -174h-158l272 328h60l266 -328h-168z" />
    <glyph glyph-name="Idieresis" unicode="&#xcf;" horiz-adv-x="509" 
d="M174 0v1501h164v-1501h-164zM535 1770q0 -42 -31 -72.5t-73 -30.5t-72.5 30.5t-30.5 72.5t30.5 73t72.5 31t73 -31t31 -73zM180 1770q0 -42 -30.5 -72.5t-72.5 -30.5t-73 30.5t-31 72.5t31 73t73 31t72.5 -31t30.5 -73z" />
    <glyph glyph-name="Eth" unicode="&#xd0;" horiz-adv-x="1566" 
d="M609 1511q198 0 358.5 -62.5t268 -166.5t163 -239t55.5 -283t-52 -288t-157.5 -247.5t-264.5 -172t-361 -64.5t-414 24v676h-185v148h185v651q206 24 404 24zM622 129q327 0 490.5 176t163.5 454t-173.5 445.5t-490.5 167.5q-161 0 -243 -16v-520h223v-148h-223v-543
q76 -16 253 -16z" />
    <glyph glyph-name="Ntilde" unicode="&#xd1;" horiz-adv-x="1486" 
d="M328 0h-164v1522l33 8l962 -1149v1120h164v-1524l-20 -6l-975 1168v-1139zM858 1628q-57 0 -119 39q-53 39 -106 39t-113 -76l-74 96q87 111 195 111q59 0 116.5 -39t109.5 -39t112 76l74 -96q-87 -111 -195 -111z" />
    <glyph glyph-name="Ograve" unicode="&#xd2;" horiz-adv-x="1722" 
d="M1610 751q0 -169 -61.5 -311.5t-165 -246t-240.5 -161t-289 -57.5t-287 57.5t-236.5 161t-159.5 246t-58 311.5t61.5 311t164.5 244.5t240.5 161t289 58.5t286.5 -58.5t236.5 -161t160 -244.5t58.5 -311zM1432 749.5q0 133.5 -42 248t-118 199.5t-180.5 133t-229.5 48
t-230.5 -48t-181 -133t-117.5 -199.5t-42 -248t42 -248t117.5 -199.5t181 -133t230.5 -48t229.5 48t180.5 133t118 199.5t42 248zM924 1626l-392 182l86 160l359 -256z" />
    <glyph glyph-name="Oacute" unicode="&#xd3;" horiz-adv-x="1722" 
d="M1610 751q0 -169 -61.5 -311.5t-165 -246t-240.5 -161t-289 -57.5t-287 57.5t-236.5 161t-159.5 246t-58 311.5t61.5 311t164.5 244.5t240.5 161t289 58.5t286.5 -58.5t236.5 -161t160 -244.5t58.5 -311zM1432 749.5q0 133.5 -42 248t-118 199.5t-180.5 133t-229.5 48
t-230.5 -48t-181 -133t-117.5 -199.5t-42 -248t42 -248t117.5 -199.5t181 -133t230.5 -48t229.5 48t180.5 133t118 199.5t42 248zM793 1626l-48 90l359 256l80 -164z" />
    <glyph glyph-name="Ocircumflex" unicode="&#xd4;" horiz-adv-x="1722" 
d="M1610 751q0 -169 -61.5 -311.5t-165 -246t-240.5 -161t-289 -57.5t-287 57.5t-236.5 161t-159.5 246t-58 311.5t61.5 311t164.5 244.5t240.5 161t289 58.5t286.5 -58.5t236.5 -161t160 -244.5t58.5 -311zM1432 749.5q0 133.5 -42 248t-118 199.5t-180.5 133t-229.5 48
t-230.5 -48t-181 -133t-117.5 -199.5t-42 -248t42 -248t117.5 -199.5t181 -133t230.5 -48t229.5 48t180.5 133t118 199.5t42 248zM991 1657l-137 174l-135 -174h-158l273 328h59l266 -328h-168z" />
    <glyph glyph-name="Otilde" unicode="&#xd5;" horiz-adv-x="1722" 
d="M1610 751q0 -169 -61.5 -311.5t-165 -246t-240.5 -161t-289 -57.5t-287 57.5t-236.5 161t-159.5 246t-58 311.5t61.5 311t164.5 244.5t240.5 161t289 58.5t286.5 -58.5t236.5 -161t160 -244.5t58.5 -311zM1432 749.5q0 133.5 -42 248t-118 199.5t-180.5 133t-229.5 48
t-230.5 -48t-181 -133t-117.5 -199.5t-42 -248t42 -248t117.5 -199.5t181 -133t230.5 -48t229.5 48t180.5 133t118 199.5t42 248zM975 1659q-57 0 -119 39q-53 39 -106 39t-113 -76l-74 96q87 111 195 111q59 0 116.5 -39t109.5 -39t112 76l73 -97q-86 -110 -194 -110z" />
    <glyph glyph-name="Odieresis" unicode="&#xd6;" horiz-adv-x="1722" 
d="M1610 751q0 -169 -61.5 -311.5t-165 -246t-240.5 -161t-289 -57.5t-287 57.5t-236.5 161t-159.5 246t-58 311.5t61.5 311t164.5 244.5t240.5 161t289 58.5t286.5 -58.5t236.5 -161t160 -244.5t58.5 -311zM1432 749.5q0 133.5 -42 248t-118 199.5t-180.5 133t-229.5 48
t-230.5 -48t-181 -133t-117.5 -199.5t-42 -248t42 -248t117.5 -199.5t181 -133t230.5 -48t229.5 48t180.5 133t118 199.5t42 248zM1141 1770q0 -42 -31 -72.5t-73 -30.5t-72.5 30.5t-30.5 72.5t30.5 73t72.5 31t73 -31t31 -73zM786 1770q0 -42 -30.5 -72.5t-72.5 -30.5
t-72.5 30.5t-30.5 72.5t30.5 73t72.5 31t72.5 -31t30.5 -73z" />
    <glyph glyph-name="multiply" unicode="&#xd7;" 
d="M221 918l230 -230l229 230l98 -99l-229 -229l229 -230l-98 -98l-229 230l-230 -230l-98 98l229 230l-229 229z" />
    <glyph glyph-name="Oslash" unicode="&#xd8;" horiz-adv-x="1722" 
d="M1610 750q0 -168 -61.5 -310.5t-165 -246t-240.5 -161t-289 -57.5q-265 0 -473 172q-115 -123 -152 -159l-100 102q41 45 73 77l40 41q41 40 39 40q-168 215 -168 502q0 170 61.5 312t164.5 244.5t240.5 161t288.5 58.5q270 0 473 -174l152 159l100 -100l-153 -160
q170 -213 170 -501zM862 1378q-251 0 -411 -180.5t-160 -447.5q0 -220 108 -379l832 866q-153 141 -369 141zM1432 750q0 220 -109 378q-231 -244 -363 -380t-206 -213.5t-132.5 -138t-94.5 -98.5l-35 -38q156 -139 370 -139q248 0 409 180t161 449z" />
    <glyph glyph-name="Ugrave" unicode="&#xd9;" horiz-adv-x="1421" 
d="M1276 539q0 -261 -157.5 -412.5t-415.5 -151.5t-408 150t-150 414v962h164v-950q0 -215 106.5 -321.5t344 -106.5t295 157.5t57.5 270.5v950h164v-962zM776 1595l-391 183l86 159l358 -256z" />
    <glyph glyph-name="Uacute" unicode="&#xda;" horiz-adv-x="1421" 
d="M1276 539q0 -261 -157.5 -412.5t-415.5 -151.5t-408 150t-150 414v962h164v-950q0 -215 106.5 -321.5t344 -106.5t295 157.5t57.5 270.5v950h164v-962zM645 1595l-47 91l358 256l80 -164z" />
    <glyph glyph-name="Ucircumflex" unicode="&#xdb;" horiz-adv-x="1421" 
d="M1276 539q0 -261 -157.5 -412.5t-415.5 -151.5t-408 150t-150 414v962h164v-950q0 -215 106.5 -321.5t344 -106.5t295 157.5t57.5 270.5v950h164v-962zM844 1626l-137 174l-136 -174h-157l272 328h59l267 -328h-168z" />
    <glyph glyph-name="Udieresis" unicode="&#xdc;" horiz-adv-x="1421" 
d="M1276 539q0 -261 -157.5 -412.5t-415.5 -151.5t-408 150t-150 414v962h164v-950q0 -215 106.5 -321.5t344 -106.5t295 157.5t57.5 270.5v950h164v-962zM993 1740q0 -42 -30.5 -73t-72.5 -31t-73 31t-31 73t31 72.5t73 30.5t72.5 -30.5t30.5 -72.5zM639 1740
q0 -42 -30.5 -73t-72.5 -31t-73 31t-31 73t31 72.5t73 30.5t72.5 -30.5t30.5 -72.5z" />
    <glyph glyph-name="Yacute" unicode="&#xdd;" horiz-adv-x="1300" 
d="M731 0h-164v668l-526 833h184l430 -696l424 696h181l-529 -835v-666zM582 1595l-47 91l358 256l80 -164z" />
    <glyph glyph-name="Thorn" unicode="&#xde;" horiz-adv-x="1128" 
d="M536 1251q118 0 226 -38.5t215.5 -138.5t107.5 -318t-157.5 -360t-429.5 -142q-92 0 -170 8v-262h-164v1501h164v-258q91 8 208 8zM533 401q79 0 227.5 56.5t148.5 300.5q0 144 -101 243t-259 99t-221 -17v-669q126 -13 205 -13z" />
    <glyph glyph-name="germandbls" unicode="&#xdf;" horiz-adv-x="1001" 
d="M684 457q256 -43 256 -319q0 -72 -65.5 -201.5t-350.5 -129.5q-38 0 -123 11l21 139q58 -8 100 -8q123 0 191.5 51.5t68.5 139.5t-55 142t-188 54h-27q-27 0 -47 -4l-12 28l256 361h-416v-721h-160v1102q0 414 338 414q66 0 133 -19l-26 -139q-41 10 -80 10
q-115 0 -160 -54t-45 -190v-264h661l11 -24z" />
    <glyph glyph-name="agrave" unicode="&#xe0;" horiz-adv-x="892" 
d="M432 877q186 0 274.5 -89.5t88.5 -275.5v-512h-150v90q-110 -106 -255 -106q-144 0 -233 74.5t-89 197.5t90.5 197.5t199.5 74.5t166.5 -17t112.5 -40v51q0 111 -53.5 162t-174.5 51t-223 -43l-26 139q151 46 272 46zM420 113q125 0 217 106v117q-66 35 -114 52.5
t-126 17.5t-127 -37t-49 -109t51.5 -109.5t147.5 -37.5zM524 971l-391 182l86 160l359 -256z" />
    <glyph glyph-name="aacute" unicode="&#xe1;" horiz-adv-x="892" 
d="M432 877q186 0 274.5 -89.5t88.5 -275.5v-512h-150v90q-110 -106 -255 -106q-144 0 -233 74.5t-89 197.5t90.5 197.5t199.5 74.5t166.5 -17t112.5 -40v51q0 111 -53.5 162t-174.5 51t-223 -43l-26 139q151 46 272 46zM420 113q125 0 217 106v117q-66 35 -114 52.5
t-126 17.5t-127 -37t-49 -109t51.5 -109.5t147.5 -37.5zM393 971l-47 90l359 256l79 -164z" />
    <glyph glyph-name="acircumflex" unicode="&#xe2;" horiz-adv-x="892" 
d="M432 877q186 0 274.5 -89.5t88.5 -275.5v-512h-150v90q-110 -106 -255 -106q-144 0 -233 74.5t-89 197.5t90.5 197.5t199.5 74.5t166.5 -17t112.5 -40v51q0 111 -53.5 162t-174.5 51t-223 -43l-26 139q151 46 272 46zM420 113q125 0 217 106v117q-66 35 -114 52.5
t-126 17.5t-127 -37t-49 -109t51.5 -109.5t147.5 -37.5zM592 1001l-137 175l-136 -175h-157l272 328h60l266 -328h-168z" />
    <glyph glyph-name="atilde" unicode="&#xe3;" horiz-adv-x="892" 
d="M432 877q186 0 274.5 -89.5t88.5 -275.5v-512h-150v90q-110 -106 -255 -106q-144 0 -233 74.5t-89 197.5t90.5 197.5t199.5 74.5t166.5 -17t112.5 -40v51q0 111 -53.5 162t-174.5 51t-223 -43l-26 139q151 46 272 46zM420 113q125 0 217 106v117q-66 35 -114 52.5
t-126 17.5t-127 -37t-49 -109t51.5 -109.5t147.5 -37.5zM575 1004q-57 0 -118 38q-53 39 -107 39t-112 -75l-74 96q86 110 194 110q59 0 116.5 -38.5t109.5 -38.5t112 75l74 -96q-86 -110 -195 -110z" />
    <glyph glyph-name="adieresis" unicode="&#xe4;" horiz-adv-x="892" 
d="M432 877q186 0 274.5 -89.5t88.5 -275.5v-512h-150v90q-110 -106 -255 -106q-144 0 -233 74.5t-89 197.5t90.5 197.5t199.5 74.5t166.5 -17t112.5 -40v51q0 111 -53.5 162t-174.5 51t-223 -43l-26 139q151 46 272 46zM420 113q125 0 217 106v117q-66 35 -114 52.5
t-126 17.5t-127 -37t-49 -109t51.5 -109.5t147.5 -37.5zM741 1115q0 -42 -30.5 -72.5t-72.5 -30.5t-72.5 30.5t-30.5 72.5t30.5 73t72.5 31t72.5 -31t30.5 -73zM387 1115q0 -42 -30.5 -72.5t-72.5 -30.5t-73 30.5t-31 72.5t31 73t73 31t72.5 -31t30.5 -73z" />
    <glyph glyph-name="aring" unicode="&#xe5;" horiz-adv-x="892" 
d="M432 877q186 0 274.5 -89.5t88.5 -275.5v-512h-150v90q-110 -106 -255 -106q-144 0 -233 74.5t-89 197.5t90.5 197.5t199.5 74.5t166.5 -17t112.5 -40v51q0 111 -53.5 162t-174.5 51t-223 -43l-26 139q151 46 272 46zM420 113q125 0 217 106v117q-66 35 -114 52.5
t-126 17.5t-127 -37t-49 -109t51.5 -109.5t147.5 -37.5zM678 1202q0 -88 -57.5 -148.5t-160 -60.5t-159.5 60.5t-57 148.5t57 149.5t159.5 61.5t160 -61.5t57.5 -149.5zM565 1203q0 52 -29.5 85t-74.5 33t-75 -32t-30 -85t30 -85t75 -32t74.5 32t29.5 84z" />
    <glyph glyph-name="ae" unicode="&#xe6;" horiz-adv-x="1499" 
d="M637 522q0 111 -52.5 162t-172.5 51t-226 -43l-26 139q151 46 274 46q232 0 305 -154q112 154 302 154t290.5 -116.5t100.5 -297.5q0 -51 -7 -82h-630q28 -258 321 -258q95 0 236 47l28 -137q-311 -99 -456.5 -27t-198.5 150q-57 -82 -147 -127t-176 -45
q-156 0 -245 74.5t-89 197.5t89 197.5t219 74.5t261 -59v53zM1048 741q-110 0 -171.5 -63.5t-75.5 -173.5h481q-8 100 -66 168.5t-168 68.5zM397 406q-78 0 -127 -37t-49 -109t51.5 -109.5t133.5 -37.5t148 46t95 152q-39 41 -106.5 68t-145.5 27z" />
    <glyph glyph-name="ccedilla" unicode="&#xe7;" horiz-adv-x="876" 
d="M707 -306q0 -66 -49.5 -122.5t-153.5 -56.5t-221 69l47 94q93 -55 174 -55q39 0 59.5 20.5t20.5 55.5t-43 66.5t-148 37.5l-8 17l45 176q-155 32 -251.5 150.5t-96.5 291.5t131.5 306t333.5 133q149 0 293 -89l-66 -122q-121 71 -246 71t-207.5 -83.5t-82.5 -222.5
q0 -140 90.5 -224t211.5 -84t244 72l56 -123q-140 -88 -293 -88h-19l-22 -88q115 -27 158 -81.5t43 -120.5z" />
    <glyph glyph-name="egrave" unicode="&#xe8;" horiz-adv-x="944" 
d="M82 422q0 191 112.5 323t296.5 132t285 -116.5t101 -297.5q0 -44 -7 -82h-630q28 -258 321 -258q97 0 238 47l28 -137q-158 -49 -277 -49q-229 0 -348.5 123.5t-119.5 314.5zM494 741q-110 0 -172 -63.5t-76 -173.5h481q-8 100 -65.5 168.5t-167.5 68.5zM559 971
l-391 182l86 160l358 -256z" />
    <glyph glyph-name="eacute" unicode="&#xe9;" horiz-adv-x="944" 
d="M82 422q0 191 112.5 323t296.5 132t285 -116.5t101 -297.5q0 -44 -7 -82h-630q28 -258 321 -258q97 0 238 47l28 -137q-158 -49 -277 -49q-229 0 -348.5 123.5t-119.5 314.5zM494 741q-110 0 -172 -63.5t-76 -173.5h481q-8 100 -65.5 168.5t-167.5 68.5zM428 971l-47 90
l358 256l80 -164z" />
    <glyph glyph-name="ecircumflex" unicode="&#xea;" horiz-adv-x="944" 
d="M82 422q0 191 112.5 323t296.5 132t285 -116.5t101 -297.5q0 -44 -7 -82h-630q28 -258 321 -258q97 0 238 47l28 -137q-158 -49 -277 -49q-229 0 -348.5 123.5t-119.5 314.5zM494 741q-110 0 -172 -63.5t-76 -173.5h481q-8 100 -65.5 168.5t-167.5 68.5zM627 1001
l-138 175l-135 -175h-157l272 328h59l267 -328h-168z" />
    <glyph glyph-name="edieresis" unicode="&#xeb;" horiz-adv-x="944" 
d="M82 422q0 191 112.5 323t296.5 132t285 -116.5t101 -297.5q0 -44 -7 -82h-630q28 -258 321 -258q97 0 238 47l28 -137q-158 -49 -277 -49q-229 0 -348.5 123.5t-119.5 314.5zM494 741q-110 0 -172 -63.5t-76 -173.5h481q-8 100 -65.5 168.5t-167.5 68.5zM776 1115
q0 -42 -30.5 -72.5t-72.5 -30.5t-73 30.5t-31 72.5t31 73t73 31t72.5 -31t30.5 -73zM422 1115q0 -42 -31 -72.5t-73 -30.5t-72.5 30.5t-30.5 72.5t30.5 73t72.5 31t73 -31t31 -73z" />
    <glyph glyph-name="igrave" unicode="&#xec;" horiz-adv-x="425" 
d="M133 0v860h162v-860h-162zM276 971l-391 182l86 160l359 -256z" />
    <glyph glyph-name="iacute" unicode="&#xed;" horiz-adv-x="425" 
d="M133 0v860h162v-860h-162zM145 971l-47 90l359 256l80 -164z" />
    <glyph glyph-name="icircumflex" unicode="&#xee;" horiz-adv-x="425" 
d="M133 0v860h162v-860h-162zM344 1001l-137 175l-135 -175h-158l272 328h60l266 -328h-168z" />
    <glyph glyph-name="idieresis" unicode="&#xef;" horiz-adv-x="425" 
d="M133 0v860h162v-860h-162zM494 1115q0 -42 -31 -72.5t-73 -30.5t-72.5 30.5t-30.5 72.5t30.5 73t72.5 31t73 -31t31 -73zM139 1115q0 -42 -30.5 -72.5t-72.5 -30.5t-73 30.5t-31 72.5t31 73t73 31t72.5 -31t30.5 -73z" />
    <glyph glyph-name="eth" unicode="&#xf0;" horiz-adv-x="1036" 
d="M954 473q0 -222 -121.5 -355.5t-323.5 -133.5t-314.5 131t-112.5 325t112 316.5t286 122.5t284 -123q-67 231 -289 428l-166 -148l-82 97l148 131q-88 63 -213 120l65 121q147 -67 254 -145l135 123l82 -99l-116 -104q372 -322 372 -807zM719 656q-78 89 -205 89
t-200.5 -82.5t-73.5 -217.5t76 -231.5t202 -96.5t202.5 89.5t76.5 224.5q0 136 -78 225z" />
    <glyph glyph-name="ntilde" unicode="&#xf1;" horiz-adv-x="980" 
d="M713 541q0 200 -163 200q-143 0 -274 -139v-602h-161v860h153v-131q148 148 308 148t229 -82t69 -211v-584h-161v541zM608 1004q-57 0 -119 38q-53 39 -106 39t-113 -75l-73 96q86 110 194 110q59 0 116.5 -38.5t109.5 -38.5t112 75l74 -96q-86 -110 -195 -110z" />
    <glyph glyph-name="ograve" unicode="&#xf2;" horiz-adv-x="1034" 
d="M952 430q0 -92 -30.5 -173t-88 -142.5t-137.5 -96t-178 -34.5t-179 34.5t-137.5 96t-88 142.5t-31.5 173t31.5 173t88 142.5t137.5 96.5t179 35t178 -35t137.5 -96.5t88 -142.5t30.5 -173zM793 430q0 141 -76 228t-200 87t-199.5 -87t-75.5 -228t75.5 -228t199.5 -87
t200 87t76 228zM580 971l-392 182l86 160l359 -256z" />
    <glyph glyph-name="oacute" unicode="&#xf3;" horiz-adv-x="1034" 
d="M952 430q0 -92 -30.5 -173t-88 -142.5t-137.5 -96t-178 -34.5t-179 34.5t-137.5 96t-88 142.5t-31.5 173t31.5 173t88 142.5t137.5 96.5t179 35t178 -35t137.5 -96.5t88 -142.5t30.5 -173zM793 430q0 141 -76 228t-200 87t-199.5 -87t-75.5 -228t75.5 -228t199.5 -87
t200 87t76 228zM449 971l-48 90l359 256l80 -164z" />
    <glyph glyph-name="ocircumflex" unicode="&#xf4;" horiz-adv-x="1034" 
d="M952 430q0 -92 -30.5 -173t-88 -142.5t-137.5 -96t-178 -34.5t-179 34.5t-137.5 96t-88 142.5t-31.5 173t31.5 173t88 142.5t137.5 96.5t179 35t178 -35t137.5 -96.5t88 -142.5t30.5 -173zM793 430q0 141 -76 228t-200 87t-199.5 -87t-75.5 -228t75.5 -228t199.5 -87
t200 87t76 228zM647 1001l-137 175l-135 -175h-158l272 328h60l266 -328h-168z" />
    <glyph glyph-name="otilde" unicode="&#xf5;" horiz-adv-x="1034" 
d="M952 430q0 -92 -30.5 -173t-88 -142.5t-137.5 -96t-178 -34.5t-179 34.5t-137.5 96t-88 142.5t-31.5 173t31.5 173t88 142.5t137.5 96.5t179 35t178 -35t137.5 -96.5t88 -142.5t30.5 -173zM793 430q0 141 -76 228t-200 87t-199.5 -87t-75.5 -228t75.5 -228t199.5 -87
t200 87t76 228zM631 1004q-57 0 -119 38q-53 39 -106 39t-113 -75l-74 96q86 110 195 110q59 0 116.5 -38.5t109.5 -38.5t112 75l73 -96q-86 -110 -194 -110z" />
    <glyph glyph-name="odieresis" unicode="&#xf6;" horiz-adv-x="1034" 
d="M952 430q0 -92 -30.5 -173t-88 -142.5t-137.5 -96t-178 -34.5t-179 34.5t-137.5 96t-88 142.5t-31.5 173t31.5 173t88 142.5t137.5 96.5t179 35t178 -35t137.5 -96.5t88 -142.5t30.5 -173zM793 430q0 141 -76 228t-200 87t-199.5 -87t-75.5 -228t75.5 -228t199.5 -87
t200 87t76 228zM797 1115q0 -42 -31 -72.5t-73 -30.5t-72.5 30.5t-30.5 72.5t30.5 73t72.5 31t73 -31t31 -73zM442 1115q0 -42 -30.5 -72.5t-72.5 -30.5t-72.5 30.5t-30.5 72.5t30.5 73t72.5 31t72.5 -31t30.5 -73z" />
    <glyph glyph-name="divide" unicode="&#xf7;" horiz-adv-x="942" 
d="M123 659h696v-139h-696v139zM369 869q0 42 29.5 73t72.5 31t72.5 -31t29.5 -73t-29.5 -72.5t-72.5 -30.5t-72.5 30.5t-29.5 72.5zM369 310q0 42 29.5 73t72.5 31t72.5 -31t29.5 -73t-29.5 -72.5t-72.5 -30.5t-72.5 30.5t-29.5 72.5z" />
    <glyph glyph-name="oslash" unicode="&#xf8;" horiz-adv-x="1034" 
d="M82 430q0 189 120.5 318t304.5 129t296 -103l96 92l78 -80l-100 -94q76 -113 75 -262q0 -192 -121 -319t-300 -127t-293 96l-101 -96l-80 79l105 99q-80 117 -80 268zM240 430q0 -92 30 -164l432 412q-70 68 -192 68t-196 -84t-74 -232zM528 115q118 0 192.5 84t74.5 231
q0 86 -29 156l-428 -410q72 -61 190 -61z" />
    <glyph glyph-name="ugrave" unicode="&#xf9;" horiz-adv-x="980" 
d="M705 860h161v-860h-153v121q-55 -53 -140.5 -95t-169.5 -42q-152 0 -224.5 81.5t-72.5 210.5v584h162v-541q0 -201 181 -200q132 0 256 131v610zM549 971l-391 182l86 160l358 -256z" />
    <glyph glyph-name="uacute" unicode="&#xfa;" horiz-adv-x="980" 
d="M705 860h161v-860h-153v121q-55 -53 -140.5 -95t-169.5 -42q-152 0 -224.5 81.5t-72.5 210.5v584h162v-541q0 -201 181 -200q132 0 256 131v610zM418 971l-47 90l358 256l80 -164z" />
    <glyph glyph-name="ucircumflex" unicode="&#xfb;" horiz-adv-x="980" 
d="M705 860h161v-860h-153v121q-55 -53 -140.5 -95t-169.5 -42q-152 0 -224.5 81.5t-72.5 210.5v584h162v-541q0 -201 181 -200q132 0 256 131v610zM616 1001l-137 175l-135 -175h-158l273 328h59l266 -328h-168z" />
    <glyph glyph-name="udieresis" unicode="&#xfc;" horiz-adv-x="980" 
d="M705 860h161v-860h-153v121q-55 -53 -140.5 -95t-169.5 -42q-152 0 -224.5 81.5t-72.5 210.5v584h162v-541q0 -201 181 -200q132 0 256 131v610zM766 1115q0 -42 -30.5 -72.5t-72.5 -30.5t-73 30.5t-31 72.5t31 73t73 31t72.5 -31t30.5 -73zM412 1115q0 -42 -31 -72.5
t-73 -30.5t-72.5 30.5t-30.5 72.5t30.5 73t72.5 31t73 -31t31 -73z" />
    <glyph glyph-name="yacute" unicode="&#xfd;" horiz-adv-x="890" 
d="M274 -442h-161l258 524l-363 778h180l263 -616l258 616h174zM377 971l-47 90l358 256l80 -164z" />
    <glyph glyph-name="thorn" unicode="&#xfe;" horiz-adv-x="1044" 
d="M268 774q116 103 290 103t289.5 -125t115.5 -317t-123.5 -321.5t-313.5 -129.5q-135 0 -250 63v-489h-161v1943h153v-727zM522 117q125 0 203 89t78 224q0 136 -77 223.5t-212 87.5t-240 -102v-424q85 -98 248 -98z" />
    <glyph glyph-name="ydieresis" unicode="&#xff;" horiz-adv-x="890" 
d="M274 -442h-161l258 524l-363 778h180l263 -616l258 616h174zM725 1115q0 -42 -30.5 -72.5t-72.5 -30.5t-73 30.5t-31 72.5t31 73t73 31t72.5 -31t30.5 -73zM371 1115q0 -42 -31 -72.5t-73 -30.5t-72.5 30.5t-30.5 72.5t30.5 73t72.5 31t73 -31t31 -73z" />
    <glyph glyph-name="Amacron" unicode="&#x100;" horiz-adv-x="1394" 
d="M1208 0l-178 416h-672l-178 -416h-170l674 1528h27l673 -1528h-176zM694 1198l-276 -645h553zM403 1681v138h588v-138h-588z" />
    <glyph glyph-name="amacron" unicode="&#x101;" horiz-adv-x="892" 
d="M432 877q186 0 274.5 -89.5t88.5 -275.5v-512h-150v90q-110 -106 -255 -106q-144 0 -233 74.5t-89 197.5t90.5 197.5t199.5 74.5t166.5 -17t112.5 -40v51q0 111 -53.5 162t-174.5 51t-223 -43l-26 139q151 46 272 46zM420 113q125 0 217 106v117q-66 35 -114 52.5
t-126 17.5t-127 -37t-49 -109t51.5 -109.5t147.5 -37.5zM168 1026v137h588v-137h-588z" />
    <glyph glyph-name="Abreve" unicode="&#x102;" horiz-adv-x="1394" 
d="M1208 0l-178 416h-672l-178 -416h-170l674 1528h27l673 -1528h-176zM694 1198l-276 -645h553zM517.5 1710.5q-68.5 68.5 -68.5 171.5l147 12q0 -61 26.5 -95t74.5 -34t75 34t27 95l147 -12q0 -101 -68 -170.5t-180 -69.5t-180.5 68.5z" />
    <glyph glyph-name="abreve" unicode="&#x103;" horiz-adv-x="892" 
d="M432 877q186 0 274.5 -89.5t88.5 -275.5v-512h-150v90q-110 -106 -255 -106q-144 0 -233 74.5t-89 197.5t90.5 197.5t199.5 74.5t166.5 -17t112.5 -40v51q0 111 -53.5 162t-174.5 51t-223 -43l-26 139q151 46 272 46zM420 113q125 0 217 106v117q-66 35 -114 52.5
t-126 17.5t-127 -37t-49 -109t51.5 -109.5t147.5 -37.5zM281 1056.5q-68 69.5 -68 170.5l147 12q0 -61 27 -95t75 -34t74.5 34t26.5 95l148 -12q0 -102 -69 -171t-181 -69t-180 69.5z" />
    <glyph glyph-name="Aogonek" unicode="&#x104;" horiz-adv-x="1394" 
d="M1319 0q-139 -168 -139 -255t73 -87q36 0 88 55l62 -57q-77 -99 -184 -105q-78 -2 -124 46.5t-45 128.5t57 151.5t101 122.5l-178 416h-672l-178 -416h-170l674 1528h27l673 -1528h-65zM694 1198l-276 -645h553z" />
    <glyph glyph-name="aogonek" unicode="&#x105;" horiz-adv-x="892" 
d="M754 0q-140 -169 -140 -256q0 -86 74 -86q37 0 88 55l62 -57q-77 -99 -185 -105q-78 -2 -124 46.5t-45 128.5t57.5 152.5t103.5 123.5v88q-110 -106 -255 -106q-144 0 -233 74.5t-89 197.5t90.5 197.5t199.5 74.5t166.5 -17t112.5 -40v51q0 111 -53.5 162t-174.5 51
t-223 -43l-26 139q151 46 272 46q186 0 274.5 -89.5t88.5 -275.5v-512h-41zM420 113q125 0 217 106v117q-66 35 -114 52.5t-126 17.5t-127 -37t-49 -109t51.5 -109.5t147.5 -37.5z" />
    <glyph glyph-name="Cacute" unicode="&#x106;" horiz-adv-x="1462" 
d="M1337 1243q-225 129 -458 129q-125 0 -238 -47t-190.5 -131t-118.5 -197.5t-41 -316.5t170 -377t448 -174q109 0 227.5 37t215.5 92l53 -139q-236 -144 -496 -144q-347 0 -512.5 161t-224.5 303.5t-59 309.5t60 309t166.5 245.5t253 163t306.5 59.5q275 0 506 -144z
M793 1626l-48 90l359 256l80 -164z" />
    <glyph glyph-name="cacute" unicode="&#x107;" horiz-adv-x="876" 
d="M547 -16q-205 0 -335 128.5t-130 313.5t131.5 318t333.5 133q149 0 293 -89l-66 -122q-121 71 -246 71t-207.5 -83.5t-82.5 -222.5q0 -140 90.5 -224t211.5 -84t244 72l56 -123q-140 -88 -293 -88zM451 971l-48 90l359 256l80 -164z" />
    <glyph glyph-name="Cdotaccent" unicode="&#x10a;" horiz-adv-x="1462" 
d="M1337 1243q-225 129 -458 129q-125 0 -238 -47t-190.5 -131t-118.5 -197.5t-41 -316.5t170 -377t448 -174q109 0 227.5 37t215.5 92l53 -139q-236 -144 -496 -144q-347 0 -512.5 161t-224.5 303.5t-59 309.5t60 309t166.5 245.5t253 163t306.5 59.5q275 0 506 -144z
M758 1770q0 42 30.5 73t72.5 31t73 -31t31 -73t-31 -72.5t-73 -30.5t-72.5 30.5t-30.5 72.5z" />
    <glyph glyph-name="cdotaccent" unicode="&#x10b;" horiz-adv-x="876" 
d="M547 -16q-205 0 -335 128.5t-130 313.5t131.5 318t333.5 133q149 0 293 -89l-66 -122q-121 71 -246 71t-207.5 -83.5t-82.5 -222.5q0 -140 90.5 -224t211.5 -84t244 72l56 -123q-140 -88 -293 -88zM416 1115q0 42 30.5 73t72.5 31t73 -31t31 -73t-31 -72.5t-73 -30.5
t-72.5 30.5t-30.5 72.5z" />
    <glyph glyph-name="Ccaron" unicode="&#x10c;" horiz-adv-x="1462" 
d="M1337 1243q-225 129 -458 129q-125 0 -238 -47t-190.5 -131t-118.5 -197.5t-41 -316.5t170 -377t448 -174q109 0 227.5 37t215.5 92l53 -139q-236 -144 -496 -144q-347 0 -512.5 161t-224.5 303.5t-59 309.5t60 309t166.5 245.5t253 163t306.5 59.5q275 0 506 -144z
M885 1632h-58l-266 330h166l137 -176l135 176h160z" />
    <glyph glyph-name="ccaron" unicode="&#x10d;" horiz-adv-x="876" 
d="M547 -16q-205 0 -335 128.5t-130 313.5t131.5 318t333.5 133q149 0 293 -89l-66 -122q-121 71 -246 71t-207.5 -83.5t-82.5 -222.5q0 -140 90.5 -224t211.5 -84t244 72l56 -123q-140 -88 -293 -88zM543 977h-58l-266 330h166l137 -177l135 177h160z" />
    <glyph glyph-name="Dcaron" unicode="&#x10e;" horiz-adv-x="1525" 
d="M568 1511q198 0 358.5 -62.5t268.5 -166.5t163 -239t55 -283t-52 -288t-157.5 -247.5t-264.5 -172t-361 -64.5t-414 24v1475q206 24 404 24zM580 129q329 0 492 177.5t163 452.5q0 276 -174.5 444.5t-491.5 168.5q-159 0 -241 -16v-1211q76 -16 252 -16zM768 1632h-57
l-267 330h166l138 -176l135 176h159z" />
    <glyph glyph-name="dcaron" unicode="&#x10f;" horiz-adv-x="1044" 
d="M768 1501h162v-1501h-154v88q-100 -104 -281 -104t-297 122t-116 313t126 324.5t290.5 133.5t269.5 -86v710zM319.5 652q-77.5 -89 -77.5 -223t76.5 -222t215.5 -88t234 112v394q-97 116 -250 116q-121 0 -198.5 -89zM1012 1149q102 122 110 352l154 -24
q0 -135 -50 -226.5t-136 -160.5z" />
    <glyph glyph-name="Dcroat" unicode="&#x110;" horiz-adv-x="1566" 
d="M609 1511q198 0 358.5 -62.5t268 -166.5t163 -239t55.5 -283t-52 -288t-157.5 -247.5t-264.5 -172t-361 -64.5t-414 24v676h-185v148h185v651q206 24 404 24zM622 129q327 0 490.5 176t163.5 454t-173.5 445.5t-490.5 167.5q-161 0 -243 -16v-520h223v-148h-223v-543
q76 -16 253 -16z" />
    <glyph glyph-name="dcroat" unicode="&#x111;" horiz-adv-x="1044" 
d="M768 1149h-295v133h295v219h162v-219h114v-133h-114v-1149h-154v88q-100 -104 -281 -104t-297 122t-116 313t126 324.5t290.5 133.5t269.5 -86v358zM319.5 652q-77.5 -89 -77.5 -223t76.5 -222t215.5 -88t234 112v394q-97 116 -250 116q-121 0 -198.5 -89z" />
    <glyph glyph-name="Emacron" unicode="&#x112;" horiz-adv-x="1175" 
d="M164 0v1501h878v-147h-714v-518h643v-148h-643v-541h714v-147h-878zM315 1681v138h588v-138h-588z" />
    <glyph glyph-name="emacron" unicode="&#x113;" horiz-adv-x="944" 
d="M82 422q0 191 112.5 323t296.5 132t285 -116.5t101 -297.5q0 -44 -7 -82h-630q28 -258 321 -258q97 0 238 47l28 -137q-158 -49 -277 -49q-229 0 -348.5 123.5t-119.5 314.5zM494 741q-110 0 -172 -63.5t-76 -173.5h481q-8 100 -65.5 168.5t-167.5 68.5zM203 1026v137
h588v-137h-588z" />
    <glyph glyph-name="Ebreve" unicode="&#x114;" horiz-adv-x="1175" 
d="M164 0v1501h878v-147h-714v-518h643v-148h-643v-541h714v-147h-878zM429 1711q-69 69 -69 171l148 12q0 -61 26.5 -95t74.5 -34t75 34t27 95l147 -12q0 -101 -68 -170.5t-180 -69.5t-181 69z" />
    <glyph glyph-name="ebreve" unicode="&#x115;" horiz-adv-x="944" 
d="M82 422q0 191 112.5 323t296.5 132t285 -116.5t101 -297.5q0 -44 -7 -82h-630q28 -258 321 -258q97 0 238 47l28 -137q-158 -49 -277 -49q-229 0 -348.5 123.5t-119.5 314.5zM494 741q-110 0 -172 -63.5t-76 -173.5h481q-8 100 -65.5 168.5t-167.5 68.5zM497 987
q-113 0 -181 69.5t-68 170.5l147 12q0 -61 27 -95t75 -34t74.5 34t26.5 95l147 -12q0 -159 -95 -199.5t-153 -40.5z" />
    <glyph glyph-name="Edotaccent" unicode="&#x116;" horiz-adv-x="1175" 
d="M164 0v1501h878v-147h-714v-518h643v-148h-643v-541h714v-147h-878zM506 1770q0 42 30.5 73t72.5 31t73 -31t31 -73t-31 -72.5t-73 -30.5t-72.5 30.5t-30.5 72.5z" />
    <glyph glyph-name="edotaccent" unicode="&#x117;" horiz-adv-x="944" 
d="M82 422q0 191 112.5 323t296.5 132t285 -116.5t101 -297.5q0 -44 -7 -82h-630q28 -258 321 -258q97 0 238 47l28 -137q-158 -49 -277 -49q-229 0 -348.5 123.5t-119.5 314.5zM494 741q-110 0 -172 -63.5t-76 -173.5h481q-8 100 -65.5 168.5t-167.5 68.5zM393 1115
q0 42 31 73t73 31t72.5 -31t30.5 -73t-30.5 -72.5t-72.5 -30.5t-73 30.5t-31 72.5z" />
    <glyph glyph-name="Eogonek" unicode="&#x118;" horiz-adv-x="1175" 
d="M848 -262q0 -39 18 -59.5t46 -20.5t48.5 12.5t49.5 42.5l61 -57q-77 -99 -184 -105q-78 -2 -124 46.5t-45 114.5t34 128.5t122 159.5h-710v1501h878v-147h-714v-518h643v-148h-643v-541h714v-147h-55q-139 -168 -139 -262z" />
    <glyph glyph-name="eogonek" unicode="&#x119;" horiz-adv-x="944" 
d="M221 87q-139 144 -139 335t112.5 323t296.5 132t285 -116.5t101 -297.5q0 -44 -7 -82h-630q28 -258 321 -258q97 0 238 47l26 -131q-176 -188 -176 -301q0 -39 18.5 -59.5t46.5 -20.5t48 12.5t49 42.5l61 -57q-77 -99 -184 -105q-78 -2 -123 46.5t-45 113.5t34 130
t124 157q-318 -55 -457 89zM494 741q-110 0 -172 -63.5t-76 -173.5h481q-8 100 -65.5 168.5t-167.5 68.5z" />
    <glyph glyph-name="Ecaron" unicode="&#x11a;" horiz-adv-x="1175" 
d="M164 0v1501h878v-147h-714v-518h643v-148h-643v-541h714v-147h-878zM633 1632h-58l-266 330h166l137 -176l136 176h159z" />
    <glyph glyph-name="ecaron" unicode="&#x11b;" horiz-adv-x="944" 
d="M82 422q0 191 112.5 323t296.5 132t285 -116.5t101 -297.5q0 -44 -7 -82h-630q28 -258 321 -258q97 0 238 47l28 -137q-158 -49 -277 -49q-229 0 -348.5 123.5t-119.5 314.5zM494 741q-110 0 -172 -63.5t-76 -173.5h481q-8 100 -65.5 168.5t-167.5 68.5zM520 977h-57
l-266 330h165l138 -177l135 177h160z" />
    <glyph glyph-name="Gbreve" unicode="&#x11e;" horiz-adv-x="1587" 
d="M918 121q209 0 382 102v367h-397v153h561v-591q-237 -177 -549 -177q-156 0 -301 55.5t-256.5 157t-178 243.5t-66.5 318.5t68.5 319.5t179 244.5t251 157t258.5 55.5q198 0 326.5 -45.5t261.5 -137.5l-86 -129q-224 164 -489 164q-264 0 -428 -184t-164 -446
t180.5 -444.5t446.5 -182.5zM880 1642q-113 0 -181 69.5t-68 170.5l147 12q0 -61 27 -95t75 -34t74.5 34t26.5 95l147 -12q0 -159 -95 -199.5t-153 -40.5z" />
    <glyph glyph-name="gbreve" unicode="&#x11f;" horiz-adv-x="1044" 
d="M776 860h154v-940q0 -199 -99 -289t-247 -90t-308 47l23 148q133 -45 247 -45t168 52t54 163v168q-108 -90 -281 -90t-289 122t-116 313t126 324.5t296 133.5t272 -97v80zM530 741q-135 0 -211.5 -90.5t-76.5 -226.5t79.5 -222.5t218.5 -86.5t228 106v404
q-39 47 -103.5 81.5t-134.5 34.5zM365 1056.5q-68 69.5 -68 170.5l147 12q0 -61 27 -95t75 -34t74.5 34t26.5 95l148 -12q0 -102 -69 -171t-181 -69t-180 69.5z" />
    <glyph glyph-name="Gdotaccent" unicode="&#x120;" horiz-adv-x="1587" 
d="M918 121q209 0 382 102v367h-397v153h561v-591q-237 -177 -549 -177q-156 0 -301 55.5t-256.5 157t-178 243.5t-66.5 318.5t68.5 319.5t179 244.5t251 157t258.5 55.5q198 0 326.5 -45.5t261.5 -137.5l-86 -129q-224 164 -489 164q-264 0 -428 -184t-164 -446
t180.5 -444.5t446.5 -182.5zM776 1770q0 42 31 73t73 31t72.5 -31t30.5 -73t-30.5 -72.5t-72.5 -30.5t-73 30.5t-31 72.5z" />
    <glyph glyph-name="gdotaccent" unicode="&#x121;" horiz-adv-x="1044" 
d="M776 860h154v-940q0 -199 -99 -289t-247 -90t-308 47l23 148q133 -45 247 -45t168 52t54 163v168q-108 -90 -281 -90t-289 122t-116 313t126 324.5t296 133.5t272 -97v80zM530 741q-135 0 -211.5 -90.5t-76.5 -226.5t79.5 -222.5t218.5 -86.5t228 106v404
q-39 47 -103.5 81.5t-134.5 34.5zM442 1115q0 42 31 73t73 31t72.5 -31t30.5 -73t-30.5 -72.5t-72.5 -30.5t-73 30.5t-31 72.5z" />
    <glyph glyph-name="Gcommaaccent" unicode="&#x122;" horiz-adv-x="1587" 
d="M918 121q209 0 382 102v367h-397v153h561v-591q-237 -177 -549 -177q-156 0 -301 55.5t-256.5 157t-178 243.5t-66.5 318.5t68.5 319.5t179 244.5t251 157t258.5 55.5q198 0 326.5 -45.5t261.5 -137.5l-86 -129q-224 164 -489 164q-264 0 -428 -184t-164 -446
t180.5 -444.5t446.5 -182.5zM930.5 -438q-54.5 -89 -158.5 -152l-22 33q96 83 131 203q-49 4 -78 33.5t-29 70.5t30 70.5t76 29.5t75.5 -36.5t29.5 -99.5t-54.5 -152z" />
    <glyph glyph-name="gcommaaccent" unicode="&#x123;" horiz-adv-x="1044" 
d="M776 860h154v-940q0 -199 -99 -289t-247 -90t-308 47l23 148q133 -45 247 -45t168 52t54 163v168q-108 -90 -281 -90t-289 122t-116 313t126 324.5t296 133.5t272 -97v80zM530 741q-135 0 -211.5 -90.5t-76.5 -226.5t79.5 -222.5t218.5 -86.5t228 106v404
q-39 47 -103.5 81.5t-134.5 34.5zM492.5 1355q54.5 90 158.5 150l23 -32q-100 -86 -131 -203q49 -4 77.5 -34t28.5 -71t-29.5 -70.5t-76.5 -29.5t-76 37t-29 100t54.5 153z" />
    <glyph glyph-name="Hbar" unicode="&#x126;" horiz-adv-x="1458" 
d="M1130 0v688h-804v-688h-162v1112h-164v139h164v250h162v-250h804v250h164v-250h164v-139h-164v-1112h-164zM1130 836v276h-804v-276h804z" />
    <glyph glyph-name="hbar" unicode="&#x127;" horiz-adv-x="993" 
d="M577 877q159 0 234.5 -82t75.5 -211v-584h-162v541q0 201 -180 200q-140 0 -269 -139v-602h-161v1149h-115v133h115v219h161v-219h295v-133h-295v-418q142 146 301 146z" />
    <glyph glyph-name="Imacron" unicode="&#x12a;" horiz-adv-x="509" 
d="M174 0v1501h164v-1501h-164zM-39 1681v138h588v-138h-588z" />
    <glyph glyph-name="imacron" unicode="&#x12b;" horiz-adv-x="425" 
d="M133 0v860h162v-860h-162zM-80 1026v137h588v-137h-588z" />
    <glyph glyph-name="Ibreve" unicode="&#x12c;" horiz-adv-x="509" 
d="M174 0v1501h164v-1501h-164zM255 1642q-113 0 -181 69.5t-68 170.5l148 12q0 -61 26.5 -95t74.5 -34t74.5 34t26.5 95l148 -12q0 -101 -68 -170.5t-181 -69.5z" />
    <glyph glyph-name="ibreve" unicode="&#x12d;" horiz-adv-x="425" 
d="M133 0v860h162v-860h-162zM214 1110q48 0 74.5 34t26.5 95l148 -12q0 -101 -68 -170.5t-181 -69.5t-181 69.5t-68 170.5l148 12q0 -61 26.5 -95t74.5 -34z" />
    <glyph glyph-name="Iogonek" unicode="&#x12e;" horiz-adv-x="509" 
d="M178 -262q0 -39 18.5 -59.5t46.5 -20.5t48 12.5t49 42.5l61 -57q-77 -99 -184 -105q-78 -2 -124 46.5t-45 114.5t33.5 127.5t123.5 160.5h-31v1501h164v-1501h-21q-139 -168 -139 -262z" />
    <glyph glyph-name="iogonek" unicode="&#x12f;" horiz-adv-x="409" 
d="M131 -262q0 -39 18.5 -59.5t46.5 -20.5t48 12.5t49 42.5l61 -57q-77 -99 -184 -105q-78 -2 -124 46.5t-45 114.5t33.5 127.5t123.5 160.5h-33v860h162v-860h-17q-139 -168 -139 -262zM309 1158q0 -42 -29.5 -72.5t-72.5 -30.5t-73 30.5t-30 72.5t30 73t73 31t72.5 -31
t29.5 -73z" />
    <glyph glyph-name="Idotaccent" unicode="&#x130;" horiz-adv-x="509" 
d="M174 0v1501h164v-1501h-164zM152 1770q0 42 30.5 73t72.5 31t72.5 -31t30.5 -73t-30.5 -72.5t-72.5 -30.5t-72.5 30.5t-30.5 72.5z" />
    <glyph glyph-name="dotlessi" unicode="&#x131;" horiz-adv-x="425" 
d="M133 0v860h162v-860h-162z" />
    <glyph glyph-name="Kcommaaccent" unicode="&#x136;" horiz-adv-x="1226" 
d="M328 0h-164v1501h164v-698l653 698h207l-696 -729l729 -772h-215l-678 737v-737zM695.5 -407q-54.5 -89 -158.5 -152l-23 33q100 86 131 202q-49 4 -77.5 34t-28.5 71t29.5 70.5t76.5 29.5t76 -37t29 -99q0 -63 -54.5 -152z" />
    <glyph glyph-name="kcommaaccent" unicode="&#x137;" horiz-adv-x="864" 
d="M276 0h-161v1501h161v-1020l365 379h201l-416 -401l436 -459h-200l-386 424v-424zM496.5 -438q-54.5 -89 -158.5 -152l-23 33q100 86 131 203q-49 4 -77.5 33.5t-28.5 70.5t29.5 70.5t76.5 29.5t76 -36.5t29 -99.5t-54.5 -152z" />
    <glyph glyph-name="Lacute" unicode="&#x139;" horiz-adv-x="1079" 
d="M164 0v1501h164v-1354h714v-147h-878zM270 1626l-47 90l359 256l80 -164z" />
    <glyph glyph-name="lacute" unicode="&#x13a;" horiz-adv-x="407" 
d="M123 0v1501h162v-1501h-162zM203 1606l-47 90l358 256l80 -164z" />
    <glyph glyph-name="Lcommaaccent" unicode="&#x13b;" horiz-adv-x="1079" 
d="M164 0v1501h164v-1354h714v-147h-878zM690 -267q0 -84 -55 -172.5t-158 -150.5l-22 33q96 83 131 203q-49 4 -78 33.5t-29 70.5t30 70.5t77 29.5t75.5 -36.5t28.5 -80.5z" />
    <glyph glyph-name="lcommaaccent" unicode="&#x13c;" horiz-adv-x="407" 
d="M123 0v1501h162v-1501h-162zM309 -267q0 -84 -55.5 -173.5t-157.5 -149.5l-22 33q100 86 131 203q-49 4 -78 33.5t-29 70.5t30 70.5t77 29.5t75.5 -36.5t28.5 -80.5z" />
    <glyph glyph-name="Lcaron" unicode="&#x13d;" horiz-adv-x="1079" 
d="M164 0v1501h164v-1354h714v-147h-878zM473 1149q103 123 111 352l153 -24q0 -135 -50 -226.5t-136 -160.5z" />
    <glyph glyph-name="lcaron" unicode="&#x13e;" horiz-adv-x="407" 
d="M123 0v1501h162v-1501h-162zM367 1149q102 122 110 352l154 -24q0 -135 -50.5 -226.5t-136.5 -160.5z" />
    <glyph glyph-name="Ldot" unicode="&#x13f;" horiz-adv-x="1079" 
d="M164 0v1501h164v-1354h714v-147h-878zM711 761q0 42 30.5 72.5t72.5 30.5t73 -30.5t31 -72.5t-31 -73t-73 -31t-72.5 31t-30.5 73z" />
    <glyph glyph-name="ldot" unicode="&#x140;" horiz-adv-x="573" 
d="M123 0v1501h162v-1501h-162zM387 751q0 42 30.5 72.5t72.5 30.5t73 -30.5t31 -72.5t-31 -73t-73 -31t-72.5 31t-30.5 73z" />
    <glyph glyph-name="Lslash" unicode="&#x141;" horiz-adv-x="1079" 
d="M328 147h714v-147h-878v621l-119 -54v162l119 53v719h164v-645l178 82v-162l-178 -82v-547z" />
    <glyph glyph-name="lslash" unicode="&#x142;" horiz-adv-x="428" 
d="M295 0h-162v610l-88 -43v162l88 43v729h162v-647l88 43v-162l-88 -43v-692z" />
    <glyph glyph-name="Nacute" unicode="&#x143;" horiz-adv-x="1486" 
d="M328 0h-164v1522l33 8l962 -1149v1120h164v-1524l-20 -6l-975 1168v-1139zM676 1595l-47 91l358 256l80 -164z" />
    <glyph glyph-name="nacute" unicode="&#x144;" horiz-adv-x="980" 
d="M713 541q0 200 -163 200q-143 0 -274 -139v-602h-161v860h153v-131q148 148 308 148t229 -82t69 -211v-584h-161v541zM426 971l-47 90l358 256l80 -164z" />
    <glyph glyph-name="Ncommaaccent" unicode="&#x145;" horiz-adv-x="1486" 
d="M328 0h-164v1522l33 8l962 -1149v1120h164v-1524l-20 -6l-975 1168v-1139zM795.5 -407q-54.5 -89 -158.5 -152l-23 33q100 86 131 202q-49 4 -77.5 34t-28.5 71t29.5 70.5t76.5 29.5t76 -37t29 -99q0 -63 -54.5 -152z" />
    <glyph glyph-name="ncommaaccent" unicode="&#x146;" horiz-adv-x="980" 
d="M713 541q0 200 -163 200q-143 0 -274 -139v-602h-161v860h153v-131q148 148 308 148t229 -82t69 -211v-584h-161v541zM545.5 -438q-54.5 -89 -158.5 -152l-22 33q96 83 131 203q-49 4 -78 33.5t-29 70.5t30.5 70.5t76.5 29.5t75 -36.5t29 -99.5t-54.5 -152z" />
    <glyph glyph-name="Ncaron" unicode="&#x147;" horiz-adv-x="1486" 
d="M328 0h-164v1522l33 8l962 -1149v1120h164v-1524l-20 -6l-975 1168v-1139zM768 1602h-57l-267 329h166l138 -176l135 176h159z" />
    <glyph glyph-name="ncaron" unicode="&#x148;" horiz-adv-x="980" 
d="M713 541q0 200 -163 200q-143 0 -274 -139v-602h-161v860h153v-131q148 148 308 148t229 -82t69 -211v-584h-161v541zM518 977h-57l-266 330h165l138 -177l135 177h160z" />
    <glyph glyph-name="Omacron" unicode="&#x14c;" horiz-adv-x="1722" 
d="M1610 751q0 -169 -61.5 -311.5t-165 -246t-240.5 -161t-289 -57.5t-287 57.5t-236.5 161t-159.5 246t-58 311.5t61.5 311t164.5 244.5t240.5 161t289 58.5t286.5 -58.5t236.5 -161t160 -244.5t58.5 -311zM1432 749.5q0 133.5 -42 248t-118 199.5t-180.5 133t-229.5 48
t-230.5 -48t-181 -133t-117.5 -199.5t-42 -248t42 -248t117.5 -199.5t181 -133t230.5 -48t229.5 48t180.5 133t118 199.5t42 248zM567 1681v138h588v-138h-588z" />
    <glyph glyph-name="omacron" unicode="&#x14d;" horiz-adv-x="1034" 
d="M952 430q0 -92 -30.5 -173t-88 -142.5t-137.5 -96t-178 -34.5t-179 34.5t-137.5 96t-88 142.5t-31.5 173t31.5 173t88 142.5t137.5 96.5t179 35t178 -35t137.5 -96.5t88 -142.5t30.5 -173zM793 430q0 141 -76 228t-200 87t-199.5 -87t-75.5 -228t75.5 -228t199.5 -87
t200 87t76 228zM223 1026v137h588v-137h-588z" />
    <glyph glyph-name="Obreve" unicode="&#x14e;" horiz-adv-x="1722" 
d="M1610 751q0 -169 -61.5 -311.5t-165 -246t-240.5 -161t-289 -57.5t-287 57.5t-236.5 161t-159.5 246t-58 311.5t61.5 311t164.5 244.5t240.5 161t289 58.5t286.5 -58.5t236.5 -161t160 -244.5t58.5 -311zM1432 749.5q0 133.5 -42 248t-118 199.5t-180.5 133t-229.5 48
t-230.5 -48t-181 -133t-117.5 -199.5t-42 -248t42 -248t117.5 -199.5t181 -133t230.5 -48t229.5 48t180.5 133t118 199.5t42 248zM681 1711q-69 69 -69 171l148 12q0 -61 26.5 -95t74.5 -34t75 34t27 95l147 -12q0 -101 -68 -170.5t-180 -69.5t-181 69z" />
    <glyph glyph-name="obreve" unicode="&#x14f;" horiz-adv-x="1034" 
d="M952 430q0 -92 -30.5 -173t-88 -142.5t-137.5 -96t-178 -34.5t-179 34.5t-137.5 96t-88 142.5t-31.5 173t31.5 173t88 142.5t137.5 96.5t179 35t178 -35t137.5 -96.5t88 -142.5t30.5 -173zM793 430q0 141 -76 228t-200 87t-199.5 -87t-75.5 -228t75.5 -228t199.5 -87
t200 87t76 228zM337 1056q-69 69 -69 171l148 12q0 -61 26.5 -95t74.5 -34t74.5 34t26.5 95l148 -12q0 -101 -68 -170.5t-180 -69.5t-181 69z" />
    <glyph glyph-name="Ohungarumlaut" unicode="&#x150;" horiz-adv-x="1722" 
d="M1610 751q0 -169 -61.5 -311.5t-165 -246t-240.5 -161t-289 -57.5t-287 57.5t-236.5 161t-159.5 246t-58 311.5t61.5 311t164.5 244.5t240.5 161t289 58.5t286.5 -58.5t236.5 -161t160 -244.5t58.5 -311zM1432 749.5q0 133.5 -42 248t-118 199.5t-180.5 133t-229.5 48
t-230.5 -48t-181 -133t-117.5 -199.5t-42 -248t42 -248t117.5 -199.5t181 -133t230.5 -48t229.5 48t180.5 133t118 199.5t42 248zM737 1642l-78 52l168 350l138 -86zM1014 1618l-78 51l168 352l139 -86z" />
    <glyph glyph-name="ohungarumlaut" unicode="&#x151;" horiz-adv-x="1034" 
d="M952 430q0 -92 -30.5 -173t-88 -142.5t-137.5 -96t-178 -34.5t-179 34.5t-137.5 96t-88 142.5t-31.5 173t31.5 173t88 142.5t137.5 96.5t179 35t178 -35t137.5 -96.5t88 -142.5t30.5 -173zM793 430q0 141 -76 228t-200 87t-199.5 -87t-75.5 -228t75.5 -228t199.5 -87
t200 87t76 228zM393 987l-78 51l168 351l138 -86zM670 963l-78 51l168 352l139 -86z" />
    <glyph glyph-name="OE" unicode="&#x152;" horiz-adv-x="2211" 
d="M971 -12q-211 0 -372 62.5t-268.5 167t-162.5 239.5t-55 283t52 287.5t221 311.5t570 172q111 0 258 -10h865v-147h-715v-518h643v-148h-643v-541h715v-147h-850q-177 -12 -258 -12zM947 1372q-332 0 -494 -177.5t-162 -453.5q0 -275 174.5 -443.5t490.5 -168.5
q162 0 244 16v1211q-76 16 -253 16z" />
    <glyph glyph-name="oe" unicode="&#x153;" horiz-adv-x="1648" 
d="M82 430q0 185 120 316t316 131q119 0 208 -51.5t142 -137.5q49 84 133.5 136.5t190.5 52.5q192 0 292.5 -116t100.5 -298q0 -49 -6 -82h-631q28 -258 320 -258q98 0 237 47l29 -137q-153 -49 -279 -49q-272 0 -389 186q-115 -186 -348 -186q-197 0 -316.5 130.5
t-119.5 315.5zM1202 741q-110 0 -171.5 -63.5t-76.5 -173.5h482q-8 100 -66 168.5t-168 68.5zM793 430q0 141 -76 228t-200 87t-199.5 -87t-75.5 -228t75.5 -228t199.5 -87t200 87t76 228z" />
    <glyph glyph-name="Racute" unicode="&#x154;" horiz-adv-x="1216" 
d="M477 588q-73 0 -147 4v-592h-164v1487q202 24 346 24q282 0 430 -124.5t148 -325.5q0 -158 -84 -270.5t-244 -163.5l436 -627h-199l-399 592q-50 -4 -123 -4zM512 727q211 0 306 88.5t95 230.5t-99 230t-259 88t-225 -16v-611q92 -10 182 -10zM522 1626l-47 90l359 256
l79 -164z" />
    <glyph glyph-name="racute" unicode="&#x155;" horiz-adv-x="606" 
d="M575 719q-94 0 -173.5 -33t-125.5 -98v-588h-161v860h153v-143q122 160 307 160v-158zM258 971l-47 90l358 256l80 -164z" />
    <glyph glyph-name="Rcommaaccent" unicode="&#x156;" horiz-adv-x="1216" 
d="M477 588q-73 0 -147 4v-592h-164v1487q202 24 346 24q282 0 430 -124.5t148 -325.5q0 -158 -84 -270.5t-244 -163.5l436 -627h-199l-399 592q-50 -4 -123 -4zM512 727q211 0 306 88.5t95 230.5t-99 230t-259 88t-225 -16v-611q92 -10 182 -10zM640.5 -409.5
q-55.5 -89.5 -157.5 -149.5l-22 33q100 86 131 202q-49 4 -78 34t-29 71t30 70.5t77 29.5t75.5 -36.5t28.5 -100.5t-55.5 -153.5z" />
    <glyph glyph-name="rcommaaccent" unicode="&#x157;" horiz-adv-x="606" 
d="M575 719q-94 0 -173.5 -33t-125.5 -98v-588h-161v860h153v-143q122 160 307 160v-158zM311 -267q0 -84 -55.5 -173.5t-157.5 -149.5l-22 33q100 86 131 203q-49 4 -78 33.5t-29 70.5t30 70.5t77 29.5t75.5 -36.5t28.5 -80.5z" />
    <glyph glyph-name="Rcaron" unicode="&#x158;" horiz-adv-x="1216" 
d="M477 588q-73 0 -147 4v-592h-164v1487q202 24 346 24q282 0 430 -124.5t148 -325.5q0 -158 -84 -270.5t-244 -163.5l436 -627h-199l-399 592q-50 -4 -123 -4zM512 727q211 0 306 88.5t95 230.5t-99 230t-259 88t-225 -16v-611q92 -10 182 -10zM614 1632h-57l-266 330h166
l137 -176l135 176h160z" />
    <glyph glyph-name="rcaron" unicode="&#x159;" horiz-adv-x="606" 
d="M575 719q-94 0 -173.5 -33t-125.5 -98v-588h-161v860h153v-143q122 160 307 160v-158zM350 977h-57l-266 330h166l137 -177l135 177h160z" />
    <glyph glyph-name="Sacute" unicode="&#x15a;" horiz-adv-x="1028" 
d="M842 1284q-123 92 -265 92t-216 -72t-74 -165t58.5 -158.5t186.5 -123.5q242 -109 327 -203.5t85 -261.5t-130.5 -292t-328.5 -125q-129 0 -232 37t-202 103l80 143q188 -133 363 -133q138 0 210 77.5t72 182.5t-58 172t-197 129q-140 62 -269 146t-129 284
q0 170 129.5 290t321.5 120t341 -103zM479 1626l-47 90l359 256l79 -164z" />
    <glyph glyph-name="sacute" unicode="&#x15b;" horiz-adv-x="724" 
d="M248 640q0 -42 29.5 -65.5t73.5 -44t170 -69.5t126 -207q0 -113 -82 -191.5t-187 -78.5q-183 0 -323 112l82 115q49 -45 108.5 -70.5t108.5 -25.5q148 0 148 123q0 43 -30 69.5t-75 47t-96 41t-126 68t-75 154.5t80 183t208.5 76t254.5 -82l-72 -121q-100 71 -179 71
t-111.5 -31.5t-32.5 -73.5zM317 971l-47 90l359 256l80 -164z" />
    <glyph glyph-name="Scedilla" unicode="&#x15e;" horiz-adv-x="1028" 
d="M842 1284q-123 92 -265 92t-216 -72t-74 -165t58.5 -158.5t186.5 -123.5q242 -109 327 -203.5t85 -257.5t-118.5 -284t-303.5 -135l-20 -81q115 -27 157.5 -81.5t42.5 -120.5t-49 -122.5t-153 -56.5t-221 69l47 94q93 -55 174 -55q39 0 59.5 20.5t20.5 55.5t-43 66.5
t-148 37.5l-8 17l41 157q-193 18 -371 138l80 143q188 -133 363 -133q138 0 210 77.5t72 182.5t-58 172t-197 129q-140 62 -269 146t-129 284q0 170 129.5 290t321.5 120t341 -103z" />
    <glyph glyph-name="scedilla" unicode="&#x15f;" horiz-adv-x="724" 
d="M248 640q0 -42 29.5 -65.5t73.5 -44t170 -69.5t126 -207q0 -107 -75.5 -186.5t-192.5 -83.5l-23 -88q115 -27 158 -81.5t43 -120.5t-49 -122.5t-153 -56.5t-222 69l47 94q93 -55 174 -55q39 0 59.5 20.5t20.5 55.5t-43 66.5t-147 37.5l-8 17l45 172q-124 19 -226 104
l82 115q49 -45 108.5 -70.5t108.5 -25.5q148 0 148 123q0 43 -30 69.5t-75 47t-96 41t-126 68t-75 154.5t80 183t208.5 76t254.5 -82l-72 -121q-100 71 -179 71t-111.5 -31.5t-32.5 -73.5z" />
    <glyph glyph-name="Scaron" unicode="&#x160;" horiz-adv-x="1028" 
d="M842 1284q-123 92 -265 92t-216 -72t-74 -165t58.5 -158.5t186.5 -123.5q242 -109 327 -203.5t85 -261.5t-130.5 -292t-328.5 -125q-129 0 -232 37t-202 103l80 143q188 -133 363 -133q138 0 210 77.5t72 182.5t-58 172t-197 129q-140 62 -269 146t-129 284
q0 170 129.5 290t321.5 120t341 -103zM571 1632h-57l-266 330h166l137 -176l135 176h160z" />
    <glyph glyph-name="scaron" unicode="&#x161;" horiz-adv-x="724" 
d="M248 640q0 -42 29.5 -65.5t73.5 -44t170 -69.5t126 -207q0 -113 -82 -191.5t-187 -78.5q-183 0 -323 112l82 115q49 -45 108.5 -70.5t108.5 -25.5q148 0 148 123q0 43 -30 69.5t-75 47t-96 41t-126 68t-75 154.5t80 183t208.5 76t254.5 -82l-72 -121q-100 71 -179 71
t-111.5 -31.5t-32.5 -73.5zM410 977h-58l-266 330h166l137 -177l135 177h160z" />
    <glyph glyph-name="Tcommaaccent" unicode="&#x162;" horiz-adv-x="1267" 
d="M717 1354v-1354h-164v1354h-502v147h1166v-147h-500zM685 -439q-54 -89 -159 -151l-22 33q100 86 131 203q-49 4 -78 33.5t-29 70.5t30 70.5t77 29.5t75.5 -36.5t28.5 -100.5q0 -63 -54 -152z" />
    <glyph glyph-name="tcommaaccent" unicode="&#x163;" horiz-adv-x="604" 
d="M406 -16q-240 0 -240 270v467h-137v20l137 133v150l158 117v-281h254v-139h-254v-483q0 -113 135 -113q38 0 71 6l17 -131q-78 -16 -141 -16zM398.5 -438q-54.5 -89 -158.5 -152l-23 33q100 86 131 203q-49 4 -77.5 33.5t-28.5 70.5t29.5 70.5t76.5 29.5t76 -36.5
t29 -99.5t-54.5 -152z" />
    <glyph glyph-name="Tcaron" unicode="&#x164;" horiz-adv-x="1267" 
d="M717 1354v-1354h-164v1354h-502v147h1166v-147h-500zM657 1632h-57l-266 330h166l137 -176l135 176h160z" />
    <glyph glyph-name="tcaron" unicode="&#x165;" horiz-adv-x="604" 
d="M406 -16q-240 0 -240 270v467h-137v20l137 133v150l158 117v-281h254v-139h-254v-483q0 -113 135 -113q38 0 71 6l17 -131q-78 -16 -141 -16zM401 1040q103 123 111 353l154 -25q0 -135 -50.5 -226t-136.5 -161z" />
    <glyph glyph-name="Umacron" unicode="&#x16a;" horiz-adv-x="1421" 
d="M1276 539q0 -261 -157.5 -412.5t-415.5 -151.5t-408 150t-150 414v962h164v-950q0 -215 106.5 -321.5t344 -106.5t295 157.5t57.5 270.5v950h164v-962zM420 1651v137h588v-137h-588z" />
    <glyph glyph-name="umacron" unicode="&#x16b;" horiz-adv-x="980" 
d="M705 860h161v-860h-153v121q-55 -53 -140.5 -95t-169.5 -42q-152 0 -224.5 81.5t-72.5 210.5v584h162v-541q0 -201 181 -200q132 0 256 131v610zM193 1026v137h587v-137h-587z" />
    <glyph glyph-name="Ubreve" unicode="&#x16c;" horiz-adv-x="1421" 
d="M1276 539q0 -261 -157.5 -412.5t-415.5 -151.5t-408 150t-150 414v962h164v-950q0 -215 106.5 -321.5t344 -106.5t295 157.5t57.5 270.5v950h164v-962zM714 1612q-112 0 -180.5 68.5t-68.5 170.5l147 13q0 -61 27 -95t75 -34t74.5 33.5t26.5 95.5l148 -13
q0 -158 -95.5 -198.5t-153.5 -40.5z" />
    <glyph glyph-name="ubreve" unicode="&#x16d;" horiz-adv-x="980" 
d="M705 860h161v-860h-153v121q-55 -53 -140.5 -95t-169.5 -42q-152 0 -224.5 81.5t-72.5 210.5v584h162v-541q0 -201 181 -200q132 0 256 131v610zM306.5 1055.5q-68.5 68.5 -68.5 171.5l147 12q0 -61 26.5 -95t74.5 -34t75 34t27 95l147 -12q0 -101 -68 -170.5t-180 -69.5
t-180.5 68.5z" />
    <glyph glyph-name="Uring" unicode="&#x16e;" horiz-adv-x="1421" 
d="M1276 539q0 -261 -157.5 -412.5t-415.5 -151.5t-408 150t-150 414v962h164v-950q0 -215 106.5 -321.5t344 -106.5t295 157.5t57.5 270.5v950h164v-962zM930 1827q0 -88 -57.5 -148.5t-160 -60.5t-159.5 60.5t-57 148.5t57 149.5t159.5 61.5t160 -61.5t57.5 -149.5z
M817 1828q0 52 -29.5 85t-74.5 33t-75 -32t-30 -85t30 -85t75 -32t74.5 32t29.5 84z" />
    <glyph glyph-name="uring" unicode="&#x16f;" horiz-adv-x="980" 
d="M705 860h161v-860h-153v121q-55 -53 -140.5 -95t-169.5 -42q-152 0 -224.5 81.5t-72.5 210.5v584h162v-541q0 -201 181 -200q132 0 256 131v610zM702 1202q0 -88 -57 -148.5t-159.5 -60.5t-160 60.5t-57.5 148.5t57.5 149.5t160 61.5t159.5 -61.5t57 -149.5zM590 1203
q0 52 -30 85t-75 33t-74.5 -32t-29.5 -85t29.5 -85t74.5 -32t75 32t30 84z" />
    <glyph glyph-name="Uhungarumlaut" unicode="&#x170;" horiz-adv-x="1421" 
d="M1276 539q0 -261 -157.5 -412.5t-415.5 -151.5t-408 150t-150 414v962h164v-950q0 -215 106.5 -321.5t344 -106.5t295 157.5t57.5 270.5v950h164v-962zM590 1612l-78 51l168 350l137 -86zM866 1587l-78 51l168 353l140 -86z" />
    <glyph glyph-name="uhungarumlaut" unicode="&#x171;" horiz-adv-x="980" 
d="M705 860h161v-860h-153v121q-55 -53 -140.5 -95t-169.5 -42q-152 0 -224.5 81.5t-72.5 210.5v584h162v-541q0 -201 181 -200q132 0 256 131v610zM362 987l-77 51l168 351l137 -86zM639 963l-78 51l168 352l139 -86z" />
    <glyph glyph-name="Uogonek" unicode="&#x172;" horiz-adv-x="1421" 
d="M739 -342q37 0 88 55l62 -57q-77 -99 -184 -105q-78 -2 -124 46.5t-44 111.5t29.5 119.5t105.5 146.5q-244 10 -385.5 155.5t-141.5 408.5v962h164v-950q0 -215 106.5 -321.5t344 -106.5t295 157.5t57.5 270.5v950h164v-962q0 -237 -131 -384.5t-354 -172.5
q-125 -158 -125 -241t73 -83z" />
    <glyph glyph-name="uogonek" unicode="&#x173;" horiz-adv-x="980" 
d="M688 -262q0 -39 18.5 -59.5t46.5 -20.5t48 12.5t49 42.5l61 -57q-77 -99 -184 -105q-78 -2 -124 46.5t-45 114.5t33.5 127.5t123.5 160.5h-2v121q-55 -53 -140.5 -95t-169.5 -42q-152 0 -224.5 81.5t-72.5 210.5v584h162v-541q0 -201 181 -200q132 0 256 131v610h161
v-860h-39q-139 -168 -139 -262z" />
    <glyph glyph-name="Wcircumflex" unicode="&#x174;" horiz-adv-x="1875" 
d="M1442 -25l-33 -4l-475 1188l-467 -1188l-33 4l-414 1526h166l297 -1106l445 1118h20l447 -1112l295 1100h165zM1069 1657l-137 174l-135 -174h-158l272 328h60l266 -328h-168z" />
    <glyph glyph-name="wcircumflex" unicode="&#x175;" horiz-adv-x="1220" 
d="M907 -23h-26l-263 584l-266 -584h-26l-310 883h181l168 -561l237 565h27l254 -565l157 561h172zM745 1001l-137 175l-135 -175h-158l273 328h59l266 -328h-168z" />
    <glyph glyph-name="Ycircumflex" unicode="&#x176;" horiz-adv-x="1300" 
d="M731 0h-164v668l-526 833h184l430 -696l424 696h181l-529 -835v-666zM780 1626l-137 174l-135 -174h-158l273 328h59l266 -328h-168z" />
    <glyph glyph-name="ycircumflex" unicode="&#x177;" horiz-adv-x="890" 
d="M274 -442h-161l258 524l-363 778h180l263 -616l258 616h174zM575 1001l-137 175l-135 -175h-158l273 328h59l266 -328h-168z" />
    <glyph glyph-name="Ydieresis" unicode="&#x178;" horiz-adv-x="1300" 
d="M731 0h-164v668l-526 833h184l430 -696l424 696h181l-529 -835v-666zM930 1740q0 -42 -31 -73t-73 -31t-72.5 31t-30.5 73t30.5 72.5t72.5 30.5t73 -30.5t31 -72.5zM575 1740q0 -42 -30.5 -73t-72.5 -31t-72.5 31t-30.5 73t30.5 72.5t72.5 30.5t72.5 -30.5t30.5 -72.5z
" />
    <glyph glyph-name="Zacute" unicode="&#x179;" horiz-adv-x="1269" 
d="M1174 147v-147h-1088l-10 23l850 1331h-797v147h1045l10 -24l-850 -1330h840zM561 1626l-47 90l358 256l80 -164z" />
    <glyph glyph-name="zacute" unicode="&#x17a;" horiz-adv-x="829" 
d="M778 139v-139h-731l-10 23l504 698h-465v139h702l10 -24l-503 -697h493zM344 971l-47 90l358 256l80 -164z" />
    <glyph glyph-name="Zdotaccent" unicode="&#x17b;" horiz-adv-x="1269" 
d="M1174 147v-147h-1088l-10 23l850 1331h-797v147h1045l10 -24l-850 -1330h840zM526 1770q0 42 31 73t73 31t72.5 -31t30.5 -73t-30.5 -72.5t-72.5 -30.5t-73 30.5t-31 72.5z" />
    <glyph glyph-name="zdotaccent" unicode="&#x17c;" horiz-adv-x="829" 
d="M778 139v-139h-731l-10 23l504 698h-465v139h702l10 -24l-503 -697h493zM309 1115q0 42 31 73t73 31t72.5 -31t30.5 -73t-30.5 -72.5t-72.5 -30.5t-73 30.5t-31 72.5z" />
    <glyph glyph-name="Zcaron" unicode="&#x17d;" horiz-adv-x="1269" 
d="M1174 147v-147h-1088l-10 23l850 1331h-797v147h1045l10 -24l-850 -1330h840zM653 1632h-57l-266 330h166l137 -176l135 176h160z" />
    <glyph glyph-name="zcaron" unicode="&#x17e;" horiz-adv-x="829" 
d="M778 139v-139h-731l-10 23l504 698h-465v139h702l10 -24l-503 -697h493zM436 977h-57l-266 330h166l137 -177l135 177h160z" />
    <glyph glyph-name="florin" unicode="&#x192;" horiz-adv-x="796" 
d="M670 1053q-113 0 -164 -54.5t-68 -189.5l-12 -107h205v-139h-221l-64 -563h-162l33 283q6 53 14.5 117.5t14.5 139.5l2 23h-133l2 15l149 139l8 69q47 414 385 414q69 0 123 -16l-26 -142q-50 11 -86 11z" />
    <glyph glyph-name="Aringacute" unicode="&#x1fa;" horiz-adv-x="1394" 
d="M915 1662q0 -83 -45 -140.5t-127 -71.5l641 -1450h-176l-178 416h-672l-178 -416h-170l639 1452q-80 14 -124 70.5t-44 139.5t57.5 144.5t160 61.5t159.5 -61.5t57 -144.5zM694 1198l-276 -645h553zM803 1658q0 52 -30 85t-75 33t-74.5 -32t-29.5 -85t29.5 -85t74.5 -32
t75 32t30 84zM629 1923l-47 90l358 256l80 -164z" />
    <glyph glyph-name="aringacute" unicode="&#x1fb;" horiz-adv-x="892" 
d="M432 877q186 0 274.5 -89.5t88.5 -275.5v-512h-150v90q-110 -106 -255 -106q-144 0 -233 74.5t-89 197.5t90.5 197.5t199.5 74.5t166.5 -17t112.5 -40v51q0 111 -53.5 162t-174.5 51t-223 -43l-26 139q151 46 272 46zM420 113q125 0 217 106v117q-66 35 -114 52.5
t-126 17.5t-127 -37t-49 -109t51.5 -109.5t147.5 -37.5zM678 1202q0 -88 -57.5 -148.5t-160 -60.5t-159.5 60.5t-57 148.5t57 149.5t159.5 61.5t160 -61.5t57.5 -149.5zM565 1203q0 52 -29.5 85t-74.5 33t-75 -32t-30 -85t30 -85t75 -32t74.5 32t29.5 84zM393 1483l-47 90
l359 256l79 -164z" />
    <glyph glyph-name="AEacute" unicode="&#x1fc;" horiz-adv-x="2088" 
d="M1077 0v483h-547l-342 -483h-188l1077 1501h879v-147h-715v-518h643v-148h-643v-541h715v-147h-879zM1077 621v632l-448 -632h448zM1268 1626l-47 90l358 256l80 -164z" />
    <glyph glyph-name="aeacute" unicode="&#x1fd;" horiz-adv-x="1499" 
d="M637 522q0 111 -52.5 162t-172.5 51t-226 -43l-26 139q151 46 274 46q232 0 305 -154q112 154 302 154t290.5 -116.5t100.5 -297.5q0 -51 -7 -82h-630q28 -258 321 -258q95 0 236 47l28 -137q-311 -99 -456.5 -27t-198.5 150q-57 -82 -147 -127t-176 -45
q-156 0 -245 74.5t-89 197.5t89 197.5t219 74.5t261 -59v53zM1048 741q-110 0 -171.5 -63.5t-75.5 -173.5h481q-8 100 -66 168.5t-168 68.5zM397 406q-78 0 -127 -37t-49 -109t51.5 -109.5t133.5 -37.5t148 46t95 152q-39 41 -106.5 68t-145.5 27zM682 971l-47 90l358 256
l80 -164z" />
    <glyph glyph-name="Oslashacute" unicode="&#x1fe;" horiz-adv-x="1722" 
d="M1610 750q0 -168 -61.5 -310.5t-165 -246t-240.5 -161t-289 -57.5q-265 0 -473 172q-115 -123 -152 -159l-100 102q41 45 73 77l40 41q41 40 39 40q-168 215 -168 502q0 170 61.5 312t164.5 244.5t240.5 161t288.5 58.5q270 0 473 -174l152 159l100 -100l-153 -160
q170 -213 170 -501zM862 1378q-251 0 -411 -180.5t-160 -447.5q0 -220 108 -379l832 866q-153 141 -369 141zM1432 750q0 220 -109 378q-231 -244 -363 -380t-206 -213.5t-132.5 -138t-94.5 -98.5l-35 -38q156 -139 370 -139q248 0 409 180t161 449zM793 1626l-48 90
l359 256l80 -164z" />
    <glyph glyph-name="oslashacute" unicode="&#x1ff;" horiz-adv-x="1034" 
d="M82 430q0 189 120.5 318t304.5 129t296 -103l96 92l78 -80l-100 -94q76 -113 75 -262q0 -192 -121 -319t-300 -127t-293 96l-101 -96l-80 79l105 99q-80 117 -80 268zM240 430q0 -92 30 -164l432 412q-70 68 -192 68t-196 -84t-74 -232zM528 115q118 0 192.5 84t74.5 231
q0 86 -29 156l-428 -410q72 -61 190 -61zM449 971l-48 90l359 256l80 -164z" />
    <glyph glyph-name="Scommaaccent" unicode="&#x218;" horiz-adv-x="1028" 
d="M842 1284q-123 92 -265 92t-216 -72t-74 -165t58.5 -158.5t186.5 -123.5q242 -109 327 -203.5t85 -261.5t-130.5 -292t-328.5 -125q-129 0 -232 37t-202 103l80 143q188 -133 363 -133q138 0 210 77.5t72 182.5t-58 172t-197 129q-140 62 -269 146t-129 284
q0 170 129.5 290t321.5 120t341 -103zM537.5 -438q-54.5 -89 -158.5 -152l-23 33q100 86 131 203q-49 4 -77.5 33.5t-28.5 70.5t29.5 70.5t76.5 29.5t76 -36.5t29 -99.5t-54.5 -152z" />
    <glyph glyph-name="scommaaccent" unicode="&#x219;" horiz-adv-x="724" 
d="M248 640q0 -42 29.5 -65.5t73.5 -44t170 -69.5t126 -207q0 -113 -82 -191.5t-187 -78.5q-183 0 -323 112l82 115q49 -45 108.5 -70.5t108.5 -25.5q148 0 148 123q0 43 -30 69.5t-75 47t-96 41t-126 68t-75 154.5t80 183t208.5 76t254.5 -82l-72 -121q-100 71 -179 71
t-111.5 -31.5t-32.5 -73.5zM406.5 -438q-54.5 -89 -158.5 -152l-23 33q100 86 131 203q-49 4 -77.5 33.5t-28.5 70.5t29.5 70.5t76.5 29.5t76 -36.5t29 -99.5t-54.5 -152z" />
    <glyph glyph-name="schwa" unicode="&#x259;" horiz-adv-x="944" 
d="M396 877q226 0 346 -124t120 -315t-112 -322.5t-298 -131.5q-185 0 -284.5 115.5t-99.5 297.5q0 49 6 82h631q-28 258 -322 258q-104 0 -238 -47l-28 137q161 50 279 50zM450 119q110 0 172 63.5t76 173.5h-481q8 -100 65.5 -168.5t167.5 -68.5z" />
    <glyph glyph-name="circumflex" unicode="&#x2c6;" 
d="M588 1001l-137 175l-136 -175h-157l272 328h59l267 -328h-168z" />
    <glyph glyph-name="caron" unicode="&#x2c7;" 
d="M471 977h-57l-267 330h166l138 -177l135 177h159z" />
    <glyph glyph-name="breve" unicode="&#x2d8;" 
d="M452 987q-113 0 -181 69.5t-68 170.5l147 12q0 -61 27 -95t75 -34t74.5 34t26.5 95l147 -12q0 -159 -95 -199.5t-153 -40.5z" />
    <glyph glyph-name="dotaccent" unicode="&#x2d9;" 
d="M348 1115q0 42 31 73t73 31t72.5 -31t30.5 -73t-30.5 -72.5t-72.5 -30.5t-73 30.5t-31 72.5z" />
    <glyph glyph-name="ring" unicode="&#x2da;" 
d="M668 1202q0 -88 -57.5 -148.5t-160 -60.5t-160 60.5t-57.5 148.5t57.5 149.5t160 61.5t160 -61.5t57.5 -149.5zM555 1203q0 52 -29.5 85t-74.5 33t-75 -32t-30 -85t30 -85t75 -32t74.5 32t29.5 84z" />
    <glyph glyph-name="ogonek" unicode="&#x2db;" 
d="M598 10q-149 -178 -149 -265t73 -87q37 0 88 55l62 -57q-77 -99 -185 -105q-78 -2 -124 46.5t-44 119.5q0 102 78 192.5t144 158.5z" />
    <glyph glyph-name="tilde" unicode="&#x2dc;" 
d="M557 1004q-57 0 -119 38q-53 39 -106 39t-113 -75l-74 96q86 110 195 110q59 0 116.5 -38.5t109.5 -38.5t112 75l74 -96q-86 -110 -195 -110z" />
    <glyph glyph-name="hungarumlaut" unicode="&#x2dd;" 
d="M270 987l-77 51l167 351l138 -86zM547 963l-78 51l168 352l139 -86z" />
    <glyph glyph-name="commaaccent" unicode="&#x326;" horiz-adv-x="352" 
d="M232.5 -438q-54.5 -89 -158.5 -152l-23 33q100 86 131 203q-49 4 -77.5 33.5t-28.5 70.5t29.5 70.5t76.5 29.5t76 -36.5t29 -99.5t-54.5 -152z" />
    <glyph glyph-name="Wgrave" unicode="&#x1e80;" horiz-adv-x="1875" 
d="M1442 -25l-33 -4l-475 1188l-467 -1188l-33 4l-414 1526h166l297 -1106l445 1118h20l447 -1112l295 1100h165zM1001 1626l-391 182l86 160l359 -256z" />
    <glyph glyph-name="wgrave" unicode="&#x1e81;" horiz-adv-x="1220" 
d="M907 -23h-26l-263 584l-266 -584h-26l-310 883h181l168 -561l237 565h27l254 -565l157 561h172zM678 971l-391 182l86 160l358 -256z" />
    <glyph glyph-name="Wacute" unicode="&#x1e82;" horiz-adv-x="1875" 
d="M1442 -25l-33 -4l-475 1188l-467 -1188l-33 4l-414 1526h166l297 -1106l445 1118h20l447 -1112l295 1100h165zM870 1626l-47 90l359 256l80 -164z" />
    <glyph glyph-name="wacute" unicode="&#x1e83;" horiz-adv-x="1220" 
d="M907 -23h-26l-263 584l-266 -584h-26l-310 883h181l168 -561l237 565h27l254 -565l157 561h172zM547 971l-47 90l358 256l80 -164z" />
    <glyph glyph-name="Wdieresis" unicode="&#x1e84;" horiz-adv-x="1875" 
d="M1442 -25l-33 -4l-475 1188l-467 -1188l-33 4l-414 1526h166l297 -1106l445 1118h20l447 -1112l295 1100h165zM1219 1770q0 -42 -31 -72.5t-73 -30.5t-72.5 30.5t-30.5 72.5t30.5 73t72.5 31t73 -31t31 -73zM864 1770q0 -42 -30.5 -72.5t-72.5 -30.5t-73 30.5t-31 72.5
t31 73t73 31t72.5 -31t30.5 -73z" />
    <glyph glyph-name="wdieresis" unicode="&#x1e85;" horiz-adv-x="1220" 
d="M907 -23h-26l-263 584l-266 -584h-26l-310 883h181l168 -561l237 565h27l254 -565l157 561h172zM895 1115q0 -42 -30.5 -72.5t-72.5 -30.5t-73 30.5t-31 72.5t31 73t73 31t72.5 -31t30.5 -73zM541 1115q0 -42 -31 -72.5t-73 -30.5t-72.5 30.5t-30.5 72.5t30.5 73t72.5 31
t73 -31t31 -73z" />
    <glyph glyph-name="Ygrave" unicode="&#x1ef2;" horiz-adv-x="1300" 
d="M731 0h-164v668l-526 833h184l430 -696l424 696h181l-529 -835v-666zM713 1595l-391 183l86 159l358 -256z" />
    <glyph glyph-name="ygrave" unicode="&#x1ef3;" horiz-adv-x="890" 
d="M274 -442h-161l258 524l-363 778h180l263 -616l258 616h174zM508 971l-391 182l86 160l358 -256z" />
    <glyph glyph-name="enspace" unicode="&#x2002;" horiz-adv-x="1024" 
 />
    <glyph glyph-name="emspace" unicode="&#x2003;" horiz-adv-x="2048" 
 />
    <glyph glyph-name="threeperemspace" unicode="&#x2004;" horiz-adv-x="681" 
 />
    <glyph glyph-name="fourperemspace" unicode="&#x2005;" horiz-adv-x="512" 
 />
    <glyph glyph-name="figurespace" unicode="&#x2007;" horiz-adv-x="1064" 
 />
    <glyph glyph-name="thinspace" unicode="&#x2009;" horiz-adv-x="272" 
 />
    <glyph glyph-name="hairspace" unicode="&#x200a;" horiz-adv-x="153" 
 />
    <glyph glyph-name="endash" unicode="&#x2013;" horiz-adv-x="1024" 
d="M102 426v139h820v-139h-820z" />
    <glyph glyph-name="emdash" unicode="&#x2014;" horiz-adv-x="1536" 
d="M102 426v139h1332v-139h-1332z" />
    <glyph glyph-name="quoteleft" unicode="&#x2018;" horiz-adv-x="352" 
d="M272 1200q0 -41 -29.5 -70.5t-76.5 -29.5t-76 37t-29 82q0 83 53 170t160 151l23 -33q-100 -86 -131 -202q49 -4 77.5 -34t28.5 -71z" />
    <glyph glyph-name="quoteright" unicode="&#x2019;" horiz-adv-x="352" 
d="M237.5 1236.5q-53.5 -87.5 -159.5 -151.5l-23 33q100 86 131 203q-49 4 -77.5 33.5t-28.5 70.5t29.5 71t76.5 30t76 -37t29 -101t-53.5 -151.5z" />
    <glyph glyph-name="quotesinglbase" unicode="&#x201a;" horiz-adv-x="352" 
d="M236.5 -94q-54.5 -89 -158.5 -152l-23 33q100 86 131 203q-49 4 -77.5 33.5t-28.5 70.5t29.5 71t76.5 30t76 -37t29 -100t-54.5 -152z" />
    <glyph glyph-name="quotedblleft" unicode="&#x201c;" horiz-adv-x="653" 
d="M573 1200q0 -41 -29.5 -70.5t-76.5 -29.5t-76 37t-29 82q0 83 53 170t160 151l23 -33q-100 -86 -131 -202q49 -4 77.5 -34t28.5 -71zM272 1200q0 -41 -29.5 -70.5t-76.5 -29.5t-76 37t-29 82q0 83 53 170t160 151l23 -33q-100 -86 -131 -202q49 -4 77.5 -34t28.5 -71z
" />
    <glyph glyph-name="quotedblright" unicode="&#x201d;" horiz-adv-x="653" 
d="M538.5 1236.5q-53.5 -87.5 -159.5 -151.5l-23 33q100 86 131 203q-49 4 -77.5 33.5t-28.5 70.5t29.5 71t76.5 30t76 -37t29 -101t-53.5 -151.5zM237.5 1236.5q-53.5 -87.5 -159.5 -151.5l-23 33q100 86 131 203q-49 4 -77.5 33.5t-28.5 70.5t29.5 71t76.5 30t76 -37
t29 -101t-53.5 -151.5z" />
    <glyph glyph-name="quotedblbase" unicode="&#x201e;" horiz-adv-x="653" 
d="M535 -97q-53 -87 -156 -149l-23 33q100 86 131 203q-49 4 -77.5 33.5t-28.5 70.5t29.5 71t76.5 30t74 -37t27 -102q0 -66 -53 -153zM237.5 -94.5q-53.5 -87.5 -159.5 -151.5l-23 33q100 86 131 203q-49 4 -77.5 33.5t-28.5 70.5t29.5 71t76.5 30t76 -37t29 -101
t-53.5 -151.5z" />
    <glyph glyph-name="dagger" unicode="&#x2020;" horiz-adv-x="931" 
d="M547 1008v-689h-154v689h-332v139h332v354h154v-354h323v-139h-323z" />
    <glyph glyph-name="daggerdbl" unicode="&#x2021;" horiz-adv-x="931" 
d="M547 616v-297h-154v297h-321v140h321v309h-332v139h332v297h154v-297h323v-139h-323v-309h334v-140h-334z" />
    <glyph glyph-name="bullet" unicode="&#x2022;" horiz-adv-x="778" 
d="M668 749.5q0 -59.5 -21.5 -111.5t-59.5 -90t-89.5 -60.5t-108.5 -22.5t-108.5 22.5t-89 60.5t-59 90t-21.5 111.5t21.5 111.5t59 90t89 60.5t108.5 22.5t108.5 -22.5t89.5 -60.5t59.5 -90t21.5 -111.5z" />
    <glyph glyph-name="ellipsis" unicode="&#x2026;" horiz-adv-x="1433" 
d="M141 89q0 44 31 75t75 31t74.5 -31t30.5 -75t-30.5 -74.5t-74.5 -30.5t-75 30.5t-31 74.5zM612 89q0 44 31 75t75 31t74.5 -31t30.5 -75t-30.5 -74.5t-74.5 -30.5t-75 30.5t-31 74.5zM1083 89q0 44 31 75t75 31t74.5 -31t30.5 -75t-30.5 -74.5t-74.5 -30.5t-75 30.5
t-31 74.5z" />
    <glyph glyph-name="perthousand" unicode="&#x2030;" horiz-adv-x="1951" 
d="M477 899q0 76 -30.5 130t-92.5 54t-94.5 -54t-32.5 -130t32 -130t94 -54t93 54t31 130zM604 899.5q0 -61.5 -16.5 -116t-49 -96.5t-79.5 -65.5t-108.5 -23.5t-107.5 23.5t-77 65.5t-47.5 96.5t-16.5 116t16.5 115.5t49.5 96t79 65.5t107.5 23.5t108.5 -23.5t77.5 -65.5
t47 -96t16.5 -115.5zM238 -39l-93 76l981 1182l93 -76zM1137 280.5q0 75.5 -31 130t-94.5 54.5t-94 -54.5t-30.5 -130t30.5 -130t94 -54.5t94.5 54.5t31 130zM1262 280.5q0 -61.5 -16.5 -115.5t-49.5 -96t-79 -65.5t-107.5 -23.5t-107.5 23.5t-77.5 65.5t-47 96t-15.5 115.5
t16.5 116t48 96.5t78.5 65.5t108.5 23.5t107.5 -23.5t77 -65.5t47.5 -96.5t16.5 -116zM1724 280.5q0 75.5 -30.5 130t-94 54.5t-94 -54.5t-30.5 -130t30.5 -130t94 -54.5t94 54.5t30.5 130zM1849 280.5q0 -61.5 -16 -115.5t-49 -96t-79 -65.5t-107.5 -23.5t-107.5 23.5
t-78 65.5t-47 96t-15 115.5t16 116t48 96.5t79 65.5t108.5 23.5t107.5 -23.5t77 -65.5t47 -96.5t16 -116z" />
    <glyph glyph-name="guilsinglleft" unicode="&#x2039;" horiz-adv-x="569" 
d="M315 18l-215 336l215 334h162l-225 -334l225 -336h-162z" />
    <glyph glyph-name="guilsinglright" unicode="&#x203a;" horiz-adv-x="569" 
d="M254 18h-162l225 336l-225 334h162l215 -334z" />
    <glyph glyph-name="fraction" unicode="&#x2044;" horiz-adv-x="1179" 
d="M145 -39l-92 76l981 1182l90 -76z" />
    <glyph glyph-name="Euro" unicode="&#x20ac;" horiz-adv-x="1333" 
d="M186 585q0 43 4 81h-133v139h166q66 177 225 286t373 109t393 -115l-67 -131q-174 101 -331 101q-158 0 -262.5 -66.5t-156.5 -183.5h566v-139h-605q-4 -36 -4 -80t6 -80h603v-135h-562q53 -117 163 -183.5t266 -66.5t329 100l55 -131q-186 -115 -397 -115t-372.5 109.5
t-223.5 286.5h-164v135h133q-4 36 -4 79z" />
    <glyph glyph-name="published" unicode="&#x2117;" horiz-adv-x="1724" 
d="M858 729q88 0 129 41.5t41 101.5t-40 102t-100 42t-102 -8v-275q36 -4 72 -4zM862 618q-29 0 -76 5v-246h-127v743q98 12 191 13q154 0 232.5 -74.5t78.5 -184.5t-77.5 -183t-221.5 -73zM1622 749.5q0 -159.5 -59.5 -301t-163 -247t-241.5 -166t-295.5 -60.5t-296 60.5
t-242 166t-163 247t-59.5 301t59.5 301t163 247t242 167t296 61.5t295.5 -61.5t241.5 -167t163 -247t59.5 -301zM1485 749.5q0 135.5 -49.5 255t-133 209t-197.5 140.5t-243 51t-242.5 -51t-197.5 -140.5t-133 -209t-49 -255t49 -254t133 -207.5t197.5 -140.5t242.5 -51.5
t243 51.5t197.5 140.5t133 207.5t49.5 254z" />
    <glyph glyph-name="servicemark" unicode="&#x2120;" horiz-adv-x="925" 
d="M252 1182q0 23 -16.5 37t-69.5 38q-98 47 -98 129q0 51 37.5 87t110.5 36t124 -34l-23 -82q-51 34 -103 34t-52 -41q0 -23 19.5 -36.5t69.5 -35.5q95 -41 95 -128q0 -55 -38 -95t-97 -40q-102 0 -164 45l25 82q62 -43 108 -43q72 0 72 47zM791 1057l-7 239l-129 -180h-10
l-131 180l-4 -239h-90l20 448h13l198 -268l195 268h12l21 -448h-88z" />
    <glyph glyph-name="trademark" unicode="&#x2122;" horiz-adv-x="1001" 
d="M866 1057l-6 239l-129 -180h-10l-131 180l-4 -239h-90l20 448h12l199 -268l195 268h12l20 -448h-88zM274 1417v-360h-92v360h-135v84h363v-84h-136z" />
    <glyph glyph-name="arrowleft" unicode="&#x2190;" horiz-adv-x="1456" 
d="M1354 659v-139h-1010l395 -325l-86 -103l-585 486v24l585 485l86 -102l-395 -326h1010z" />
    <glyph glyph-name="arrowright" unicode="&#x2192;" horiz-adv-x="1456" 
d="M102 520v139h1010l-395 326l86 102l586 -485v-24l-586 -486l-86 103l395 325h-1010z" />
    <glyph glyph-name="minus" unicode="&#x2212;" horiz-adv-x="942" 
d="M123 659h696v-139h-696v139z" />
    <glyph glyph-name="NUL" horiz-adv-x="0" 
 />
    <glyph glyph-name="G.alt" horiz-adv-x="1675" 
d="M1372 1214q-224 164 -489 164q-264 0 -428 -184t-164 -448t174.5 -444.5t435.5 -180.5q215 0 362.5 124.5t170.5 305.5h-562v147h736q0 -147 -50.5 -279t-196 -288t-464.5 -156q-156 0 -298 55.5t-249.5 157t-172 243.5t-64.5 318.5t67.5 319.5t178 244.5t251 157
t260.5 55.5q196 0 325 -45t263 -138z" />
    <glyph glyph-name="M.alt" horiz-adv-x="1751" 
d="M1442 0l-23 1126l-532 -809h-23l-536 803l-19 -1120h-166l58 1526l30 4l652 -991l635 991l32 -4l58 -1526h-166z" />
    <glyph glyph-name="f_f_i" horiz-adv-x="1628" 
d="M186 1102q0 414 338 414q68 0 133 -19l-26 -139q-41 10 -80 10q-115 0 -160 -54t-45 -190v-264h254v-139h-254v-721h-160v721h-133v20l133 133v228zM791 1102q0 414 337 414q67 0 134 -19l-27 -139q-41 10 -80 10q-115 0 -160 -54t-45 -190v-264h254v-139h-254v-721h-159
v721h-134v20l134 133v228zM1526 1158q0 -42 -30 -72.5t-73 -30.5t-72.5 30.5t-29.5 72.5t29.5 73t72.5 31t73 -31t30 -73zM1341 0v860h162v-860h-162z" />
    <glyph glyph-name="f_f_l" horiz-adv-x="1636" 
d="M186 1102q0 414 338 414q68 0 133 -19l-26 -139q-41 10 -80 10q-115 0 -160 -54t-45 -190v-264h254v-139h-254v-721h-160v721h-133v20l133 133v228zM791 1102q0 414 337 414q67 0 134 -19l-27 -139q-41 10 -80 10q-115 0 -160 -54t-45 -190v-264h254v-139h-254v-721h-159
v721h-134v20l134 133v228zM1341 0v1501h162v-1501h-162z" />
    <glyph glyph-name="f_f" horiz-adv-x="1208" 
d="M186 1102q0 414 338 414q68 0 133 -19l-26 -139q-41 10 -80 10q-115 0 -160 -54t-45 -190v-264h254v-139h-254v-721h-160v721h-133v20l133 133v228zM791 1102q0 414 337 414q67 0 134 -19l-27 -139q-41 10 -80 10q-115 0 -160 -54t-45 -190v-264h254v-139h-254v-721h-159
v721h-134v20l134 133v228z" />
    <glyph glyph-name="zero.lin" horiz-adv-x="1376" 
d="M1266 747.5q0 -161.5 -40 -303t-115 -246t-183.5 -164t-243.5 -59.5t-241.5 59.5t-180.5 164t-112.5 246t-38.5 303t39.5 304t114.5 248t183.5 166t243.5 60.5t241.5 -60.5t180.5 -166t113 -248t39 -304zM1087 747.5q0 141.5 -28.5 258t-80.5 199.5t-126 128t-166 45
t-166 -45t-125 -128t-78.5 -199.5t-27.5 -258t28.5 -257t81 -197.5t126 -127t165.5 -45t166 45t125 127t78.5 197.5t27.5 257z" />
    <glyph glyph-name="one.lin" horiz-adv-x="825" 
d="M399 0v1325l-262 -84l-43 131l434 156h33v-1528h-162z" />
    <glyph glyph-name="two.lin" horiz-adv-x="1130" 
d="M113 1403q188 123 393 123t332 -117.5t127 -302.5q0 -131 -73 -262t-163 -249t-188.5 -227.5t-196.5 -220.5h660v-147h-947l-12 31q284 309 373.5 417.5t132.5 159.5q235 288 235 468q0 142 -77 217t-230 75t-313 -106z" />
    <glyph glyph-name="three.lin" horiz-adv-x="1095" 
d="M424 737q-76 0 -191 -16l-22 29l512 604h-635v147h913l13 -31l-518 -602q345 -25 414 -173.5t69 -246.5q0 -199 -139 -336t-367 -137q-189 0 -389 70l59 139q168 -59 326 -59t253 88.5t95 222.5t-114 217.5t-279 83.5z" />
    <glyph glyph-name="four.lin" horiz-adv-x="1253" 
d="M948 455v-455h-162v455h-729v45l838 1024h53v-928h250v-141h-250zM786 596v584l-475 -584h475z" />
    <glyph glyph-name="five.lin" horiz-adv-x="1179" 
d="M548 911q97 0 196.5 -35.5t199.5 -131t100 -298.5t-140.5 -337t-373.5 -134q-187 0 -391 68l60 145q170 -65 290 -65q119 0 255.5 49.5t136.5 269.5q0 137 -102 230.5t-264 93.5q-163 0 -292 -31l-22 27v739h774v-147h-610v-455q86 12 183 12z" />
    <glyph glyph-name="six.lin" horiz-adv-x="1218" 
d="M986.5 126.5q-137.5 -153.5 -363.5 -153.5t-367 149.5t-141 385.5q0 444 298 689t521 364l84 -138q-242 -115 -420 -270.5t-256 -325.5q53 57 140.5 93t187.5 36t184 -37.5t177 -138.5t93 -300q0 -200 -137.5 -353.5zM866 718.5q-90 100.5 -242 100.5t-243.5 -97.5
t-91.5 -247.5t98 -252.5t241 -102.5t235.5 101t92.5 249q0 149 -90 249.5z" />
    <glyph glyph-name="seven.lin" horiz-adv-x="1079" 
d="M80 1354v147h962l-647 -1501h-174l600 1354h-741z" />
    <glyph glyph-name="eight.lin" horiz-adv-x="1163" 
d="M1049 416q0 -106 -33 -182t-94.5 -133.5t-147.5 -91.5t-242 -34t-286.5 122t-130.5 302q0 123 64.5 214.5t170.5 144.5q-98 53 -151.5 145.5t-53.5 190.5t32 175t89.5 134t137 90t225.5 33t267.5 -119.5t121.5 -298.5q0 -109 -53.5 -203t-151.5 -147q106 -53 171 -144.5
t65 -197.5zM579 1386q-132 0 -204 -81.5t-72 -201.5t76.5 -199t203 -79t202 79t75.5 199t-74.5 201.5t-206.5 81.5zM883 409.5q0 61.5 -21.5 113.5t-61.5 90t-95.5 60.5t-125 22.5t-124 -22.5t-93 -60.5t-59 -90t-20.5 -113.5t21.5 -114.5t60 -93t94 -63.5t125 -23.5
t125 23.5t94.5 63.5t59.5 93t20.5 114.5z" />
    <glyph glyph-name="nine.lin" horiz-adv-x="1208" 
d="M233.5 1380q139.5 146 364.5 146q224 0 360 -149t136 -380q0 -442 -300 -691t-524 -365l-82 135q238 115 413 268.5t255 319.5q-39 -41 -121 -73t-178 -32t-181 37t-183.5 137t-98.5 300q0 201 139.5 347zM350 796.5q90 -98.5 240 -98.5q149 0 236 95.5t87 245.5
t-91.5 247.5t-235.5 97.5t-235 -97.5t-91 -244.5t90 -245.5z" />
    <glyph glyph-name="fraction.lin" horiz-adv-x="1429" 
d="M152 -18l-99 81l1225 1479l100 -82z" />
    <glyph glyph-name="ampersand.cap" horiz-adv-x="1478" 
d="M932 1188q0 76 -57.5 135t-151.5 59t-157.5 -70t-63.5 -189t98 -273q220 65 276 163.5t56 174.5zM281 392q0 -117 85.5 -197t232.5 -80t333 161q-264 230 -406 414q-163 -65 -204 -153.5t-41 -144.5zM113 393q0 143 92.5 247.5t240.5 164.5q-102 175 -102 332t116.5 271
t274.5 114t254 -105t96 -249q0 -276 -403 -433q131 -163 354 -358q114 117 283 338l119 -82q-178 -233 -291 -350q108 -93 262 -211l-96 -109q-149 118 -271 219q-233 -207 -442 -207t-348 113.5t-139 304.5z" />
    <glyph glyph-name="guillemotleft.cap" horiz-adv-x="866" 
d="M612 424l-215 336l215 334h162l-225 -334l225 -336h-162zM315 424l-215 336l215 334h162l-225 -334l225 -336h-162z" />
    <glyph glyph-name="guillemotright.cap" horiz-adv-x="866" 
d="M551 424h-162l225 336l-225 334h162l215 -334zM254 424h-162l225 336l-225 334h162l215 -334z" />
    <glyph glyph-name="guilsinglleft.cap" horiz-adv-x="569" 
d="M315 424l-215 336l215 334h162l-225 -334l225 -336h-162z" />
    <glyph glyph-name="guilsinglright.cap" horiz-adv-x="569" 
d="M254 424h-162l225 336l-225 334h162l215 -334z" />
    <glyph glyph-name="hyphen.cap" horiz-adv-x="694" 
d="M102 690v139h490v-139h-490z" />
    <glyph glyph-name="endash.cap" horiz-adv-x="1024" 
d="M102 690v139h820v-139h-820z" />
    <glyph glyph-name="emdash.cap" horiz-adv-x="1536" 
d="M102 690v139h1332v-139h-1332z" />
    <glyph glyph-name="slash.cap" horiz-adv-x="690" 
d="M174 -223h-145l489 1943h144z" />
    <glyph glyph-name="backslash.cap" horiz-adv-x="690" 
d="M516 -223l-487 1943h143l490 -1943h-146z" />
    <glyph glyph-name="bar.cap" horiz-adv-x="507" 
d="M184 -223v1943h140v-1943h-140z" />
    <glyph glyph-name="parenleft.cap" horiz-adv-x="696" 
d="M94 747.5q0 301.5 144.5 571.5t404.5 428l68 -119q-228 -140 -348.5 -377t-120.5 -503.5t119.5 -502t349.5 -376.5l-68 -119q-262 159 -405.5 427.5t-143.5 570z" />
    <glyph glyph-name="parenright.cap" horiz-adv-x="696" 
d="M602 747.5q0 -301.5 -143.5 -570t-405.5 -427.5l-67 119q341 210 405 479.5t64 466t-119.5 433.5t-349.5 380l67 119q260 -158 404.5 -428t144.5 -571.5z" />
    <glyph glyph-name="bracketleft.cap" horiz-adv-x="608" 
d="M164 -223v1943h395v-131h-248v-1683h248v-129h-395z" />
    <glyph glyph-name="bracketright.cap" horiz-adv-x="608" 
d="M49 -223v129h248v1683h-248v131h395v-1943h-395z" />
    <glyph glyph-name="braceleft.cap" horiz-adv-x="608" 
d="M571 -238q-346 0 -346 355v434q0 66 -25.5 99.5t-101.5 33.5h-47v129h47q76 0 101.5 33t25.5 100v432q0 356 346 357v-144q-96 0 -147 -44t-51 -161v-407q0 -100 -20.5 -135t-48.5 -55.5t-71 -40.5q88 -41 114 -86.5t26 -145.5v-405q0 -117 51 -162t147 -45v-142z" />
    <glyph glyph-name="braceright.cap" horiz-adv-x="608" 
d="M510 684q-76 0 -101.5 -34t-25.5 -99v-434q0 -354 -346 -355v142q96 0 147.5 45t51.5 162v405q0 101 20 136.5t48 55t71 40.5q-87 40 -113 84.5t-26 146.5v407q0 117 -51.5 161t-147.5 44v144q346 0 346 -357v-432q0 -68 25.5 -100.5t101.5 -32.5h47v-129h-47z" />
    <glyph glyph-name="at.cap" horiz-adv-x="1773" 
d="M129 747.5q0 159.5 59.5 302t163 248t241.5 167t311 61.5t315.5 -62.5t236.5 -164t141.5 -227.5t47.5 -249q0 -265 -175 -391q-70 -55 -176 -55q-137 0 -196 127q-112 -121 -264 -121q-100 0 -171 57.5t-71 155.5t66.5 155.5t173.5 57.5t200 -41v29q0 78 -35.5 118.5
t-130.5 40.5t-182 -30l-20 127q114 34 217 34q158 0 230.5 -73.5t72.5 -222.5v-166q0 -68 36.5 -95.5t88.5 -27.5t93 30q42 30 71.5 104.5t29.5 170.5q0 231 -151.5 409.5t-464.5 178.5q-129 0 -240.5 -50.5t-193.5 -137.5t-129.5 -205.5t-47.5 -326t181 -388.5t512 -181
q140 0 309 60l35 -129q-390 -123 -698.5 -2t-397 337t-88.5 375.5zM743 600q0 -47 37 -74.5t97 -27.5q99 0 155 69v84q-73 47 -143 47q-146 0 -146 -98z" />
    <glyph glyph-name="registered.alt" horiz-adv-x="1724" 
d="M862.5 -25q-157.5 0 -296 60.5t-242 166t-163 247t-59.5 301t59.5 301t163 247t242 167t296 61.5t295.5 -61.5t241.5 -167t163 -247t59.5 -301t-59.5 -301t-163 -247t-241.5 -166t-295.5 -60.5zM862 96q129 0 243 51.5t197.5 140.5t133 207.5t49.5 254t-49.5 255
t-133 209t-197.5 140.5t-243 51t-242.5 -51t-197.5 -140.5t-133 -209t-49 -255t49 -254t133 -207.5t197.5 -140.5t242.5 -51.5zM1135 909q0 -166 -146 -231l197 -301h-150l-162 270q-10 -2 -20 -2h-20l-76 2v-270h-127v743q97 13 196 13q160 0 234 -69t74 -155zM831 752
q84 0 126 37t42 97t-40.5 96t-102.5 36t-98 -6v-256q36 -4 73 -4z" />
    <glyph glyph-name="dollar.lin" horiz-adv-x="1030" 
d="M930 393q0 -76 -32 -150.5t-117.5 -162.5t-266.5 -100l-14 -173l-138 13l13 164q-176 23 -332 131l76 137q122 -91 268 -121l49 592q-182 82 -254.5 178t-72.5 234t109 252.5t284 136.5l14 166l137 -13l-12 -155q139 -19 254 -95l-70 -133q-87 61 -196 82l-45 -553
q195 -100 270.5 -192t75.5 -238zM770 381q0 88 -41 152.5t-160 128.5l-43 -537q121 14 182.5 91t61.5 165zM264 1146q0 -79 41 -141.5t146 -117.5l38 489q-109 -16 -167 -83.5t-58 -146.5z" />
    <glyph glyph-name="sterling.lin" horiz-adv-x="1179" 
d="M104 0v147h172v527h-170v18l170 142v204q0 221 121 354.5t351 133.5q173 0 333 -117l-86 -135q-66 45 -127 70.5t-139 25.5q-143 0 -216 -83t-73 -236v-232h361v-145h-361v-527h658v-147h-994z" />
    <glyph glyph-name="Euro.lin" horiz-adv-x="1630" 
d="M266 751q0 56 8 103h-178v139h203q73 234 273 383.5t463 149.5t501 -140l-63 -124q-98 55 -215 88.5t-224 33.5q-203 0 -352 -106t-215 -285h774v-139h-809q-6 -49 -6 -104t8 -113h807v-139h-772q73 -171 224 -275t358 -104q104 0 221 37t215 92l49 -127
q-250 -144 -508 -144t-454.5 144t-272.5 377h-205v139h178q-8 58 -8 114z" />
    <glyph glyph-name="yen.lin" horiz-adv-x="1386" 
d="M1206 778v-137h-436v-180h436v-137h-436v-324h-154v324h-436v137h436v180h-436v137h363l-463 723h188l428 -696l430 696h181l-463 -723h362z" />
    <glyph glyph-name="cent.lin" horiz-adv-x="917" 
d="M549 313h-8l-11 -141l-133 10l11 150q-148 39 -237 156.5t-89 279.5q0 161 113.5 287.5t279.5 146.5l12 146l134 -11l-11 -137q121 -15 230 -82l-66 -123q-94 53 -176 66l-47 -608q109 4 233 71l56 -123q-147 -88 -291 -88zM238 772q0 -114 49 -188t133 -109l45 586
q-100 -20 -163.5 -97.5t-63.5 -191.5z" />
    <glyph glyph-name="numbersign.lin" horiz-adv-x="1529" 
d="M1145 954l-92 -413h284l-32 -140h-285l-92 -401h-144l90 401h-368l-94 -401h-146l88 401h-282l30 140h285l88 413h-282l32 140h283l94 407h146l-89 -407h367l96 407h142l-88 -407h284l-33 -140h-282zM532 541h377l90 413h-374z" />
    <glyph glyph-name="paragraph.lin" horiz-adv-x="1427" 
d="M849 1526q161 0 415 -29v-1497h-162v1366q-45 9 -195 14v-1380h-162v440q-260 -17 -456.5 118.5t-196.5 383.5q0 262 212.5 423t544.5 161zM268 950q0 -183 137.5 -280t339.5 -84v790q-240 -23 -358.5 -133t-118.5 -293z" />
    <glyph glyph-name="section.lin" horiz-adv-x="1056" 
d="M815 1290q-137 96 -281 96q-80 0 -138 -42t-58 -102t45 -95t111.5 -61.5t145.5 -53t145.5 -63.5t111.5 -88t45 -129q0 -159 -170 -244q41 -29 76 -83.5t35 -118.5q0 -139 -101.5 -235t-304.5 -96t-375 142l88 125q63 -55 150.5 -91t180.5 -36t147.5 46t54.5 106t-45 96
t-112.5 64t-146.5 54.5t-146.5 62.5t-112.5 87t-45 132t45 144.5t129 98.5q-111 78 -111 203t102 221t273 96q96 0 186 -32t154 -75zM784 719q0 49 -31.5 79.5t-85 54.5t-122 45.5t-139.5 45.5q-59 -16 -96.5 -59t-37.5 -93t32 -80t85 -53.5t122 -45t140 -46.5
q59 16 96 59.5t37 92.5z" />
    <glyph glyph-name="degree.lin" horiz-adv-x="749" 
d="M647 1257.5q0 -55.5 -18.5 -104.5t-54 -85t-86 -57.5t-114 -21.5t-113.5 21.5t-85 57.5t-54.5 85t-19.5 104.5t19.5 104.5t54.5 85t85 57.5t113.5 21.5t114 -21.5t86 -57.5t54 -85t18.5 -104.5zM518 1257.5q0 71.5 -42 114.5t-101.5 43t-101.5 -43t-42 -114.5t42 -114.5
t101.5 -43t101.5 43t42 114.5z" />
    <glyph glyph-name="percent.lin" horiz-adv-x="1675" 
d="M661 881q-82 -109 -233 -109t-233 109t-82 268t83 268t232 109t232 -109t83 -268t-82 -268zM600 1149q0 106 -45 177t-127 71t-127 -71.5t-45 -176.5t45 -176.5t127 -71.5t127 71t45 177zM274 -29l-98 82l1223 1477l100 -82zM1479.5 83.5q-83.5 -108.5 -231.5 -108.5
t-232 108.5t-84 268.5q0 159 83 268t233 109t232.5 -109t82.5 -268q0 -160 -83.5 -268.5zM1374.5 530q-44.5 70 -126.5 70q-81 0 -127 -71t-46 -176.5t45.5 -177t127.5 -71.5t126.5 71t44.5 178t-44.5 177z" />
    <glyph glyph-name="perthousand.lin" horiz-adv-x="2416" 
d="M600 1149q0 106 -45 177t-127 71t-127 -71.5t-45 -176.5t45 -176.5t127 -71.5t127 71t45 177zM661 881q-82 -109 -233 -109t-233 109t-82 268t83 268t232 109t232 -109t83 -268t-82 -268zM274 -29l-98 82l1223 1477l100 -82zM1374.5 530q-44.5 70 -126.5 70
q-81 0 -127 -71t-46 -176.5t45.5 -177t127.5 -71.5t126.5 71t44.5 178t-44.5 177zM1479.5 83.5q-83.5 -108.5 -231.5 -108.5t-232 108.5t-84 268.5q0 159 83 268t233 109t232.5 -109t82.5 -268q0 -160 -83.5 -268.5zM2115.5 529q-45.5 71 -127.5 71q-81 0 -126 -70
t-45 -209.5t65.5 -178t107.5 -38.5t73.5 19.5t64.5 71.5t33 157.5t-45.5 176.5zM2220 83.5q-84 -108.5 -232 -108.5t-231.5 108.5t-83.5 268.5q0 159 82.5 268t232.5 109t233 -109t83 -268q0 -160 -84 -268.5z" />
    <glyph glyph-name="quotedbl.cap" horiz-adv-x="778" 
d="M184 1100l-90 59l193 402l157 -99zM502 1075l-90 60l192 405l162 -100z" />
    <glyph glyph-name="quotesingle.cap" horiz-adv-x="501" 
d="M184 1100l-90 59l193 402l157 -99z" />
    <glyph glyph-name="plus.lin" horiz-adv-x="942" 
d="M545 690v-289h-148v289h-274v139h274v289h148v-289h274v-139h-274z" />
    <glyph glyph-name="minus.lin" horiz-adv-x="942" 
d="M123 829h696v-139h-696v139z" />
    <glyph glyph-name="divide.lin" horiz-adv-x="942" 
d="M123 829h696v-139h-696v139zM369 1039q0 42 29.5 73t72.5 31t72.5 -31t29.5 -73t-29.5 -72.5t-72.5 -30.5t-72.5 30.5t-29.5 72.5zM369 480q0 42 29.5 73t72.5 31t72.5 -31t29.5 -73t-29.5 -72.5t-72.5 -30.5t-72.5 30.5t-29.5 72.5z" />
    <glyph glyph-name="equal.lin" horiz-adv-x="845" 
d="M123 838v139h600v-139h-600zM123 543v139h600v-139h-600z" />
    <glyph glyph-name="multiply.lin" 
d="M221 1087l230 -229l229 229l98 -98l-229 -229l229 -230l-98 -98l-229 230l-230 -230l-98 98l229 230l-229 229z" />
    <glyph glyph-name="less.lin" horiz-adv-x="806" 
d="M641 262l-563 498l563 500l96 -107l-446 -397l446 -396z" />
    <glyph glyph-name="greater.lin" horiz-adv-x="806" 
d="M166 262l-96 107l446 397l-446 395l96 99l563 -498z" />
    <glyph glyph-name="florin.lin" horiz-adv-x="1009" 
d="M813 1378q-134 0 -206.5 -82.5t-92.5 -265.5l-20 -172h305v-147h-322l-82 -711h-162l82 711h-143v18l160 131l18 162q29 242 153 373t322 131q85 0 164 -27l-41 -137q-78 16 -135 16z" />
    <glyph glyph-name="arrowleft.cap" horiz-adv-x="1456" 
d="M1354 829v-139h-1010l395 -325l-86 -103l-585 486v24l585 485l86 -102l-395 -326h1010z" />
    <glyph glyph-name="arrowright.cap" horiz-adv-x="1456" 
d="M102 690v139h1010l-395 326l86 102l586 -485v-24l-586 -486l-86 103l395 325h-1010z" />
    <glyph glyph-name="hfjslug" horiz-adv-x="1421" 
d="M102 -410v621q29 0 47.5 18.5t18.5 46.5t-18.5 47t-47.5 19v1135h205l62 161h684l59 -161h207v-1887h-426l-16 29h-334l-17 -29h-424zM819 801h31v160h78v28h-78v135h88v29h-119v-352zM377 801h31v162h96v-162h31v352h-31v-162h-96v162h-31v-352zM985 799q63 0 64 73v281
h-33v-281q0 -45 -33 -45q-15 0 -41 13v-33q12 -8 43 -8zM729 1037q0 73 -55 73q-27 0 -42.5 -20.5t-15.5 -45t29 -77.5q-47 -37 -47 -83q0 -90 64 -89q34 0 55 49h2l24 -49l23 16l-33 61q21 47 27 80l-27 6q-4 -14 -9 -30.5t-9 -30.5l-33 64q47 43 47 76zM1071 567h16v27
l15 14l33 -41h18l-39 54l37 41h-21l-43 -50v50h-16v-95zM1034 626q0 36 -33 36h-43v-95h17v31h24l21 -31h18l-24 35q20 6 20 24zM872.5 565q22.5 0 36 14.5t13.5 33.5t-13.5 35t-36 16t-35 -15t-12.5 -35t12.5 -34.5t35 -14.5zM750 567h16v35l37 60h-19l-26 -46l-27 46h-18
l37 -60v-35zM395 567h68v15h-51v26h45v15h-45v24h51v15h-68v-95zM270 567h17v66l51 -66h14v95h-16v-66l-51 66h-15v-95zM524 565h17l20 70h2l23 -70h16l29 97h-17l-20 -72h-2l-21 72h-16l-23 -72h-2l-20 72h-16zM645 1047q0 16 8.5 27t27.5 11t19 -37t-30 -67q-25 50 -25 66
zM661 823q-13 0 -22.5 16.5t-9.5 46.5t30 60l41 -80q-4 -16 -15 -29.5t-24 -13.5zM975 612v35h22q20 0 21 -16q0 -18 -19 -19h-24zM864.5 580q-22.5 0 -22.5 34q0 12 8 23.5t22.5 11.5t23.5 -10.5t9 -24.5t-9 -24t-31.5 -10z" />
    <glyph glyph-name="caron.alt" horiz-adv-x="460" 
d="M94 1159q103 123 111 352l153 -24q0 -135 -50 -226.5t-136 -160.5z" />
    </font>
</defs>
</svg>
